<?xml version="1.0" encoding="UTF-8"?>
<svg xmlns="http://www.w3.org/2000/svg" xmlns:xlink="http://www.w3.org/1999/xlink" width="392.912pt" height="167.599pt" viewBox="0 0 392.912 167.599" version="1.1">
<defs>
<g>
<symbol overflow="visible" id="glyph0-0">
<path style="stroke:none;" d=""/>
</symbol>
<symbol overflow="visible" id="glyph0-1">
<path style="stroke:none;" d="M 3.78125 0 L 3.78125 -2.59375 C 3.78125 -3.484375 3.125 -4.140625 2.25 -4.140625 C 1.65625 -4.140625 1.234375 -3.984375 0.796875 -3.734375 L 0.859375 -3.109375 C 1.296875 -3.4375 1.734375 -3.5625 2.234375 -3.5625 C 2.734375 -3.5625 3.046875 -3.171875 3.046875 -2.578125 L 3.046875 -2.203125 C 1.5 -2.171875 0.484375 -1.765625 0.484375 -1.046875 C 0.484375 -0.625 0.765625 0.09375 1.546875 0.09375 C 1.71875 0.09375 2.5 0.078125 3.0625 -0.34375 L 3.0625 0 Z M 3.046875 -1.25 C 3.046875 -1.0625 3.046875 -0.84375 2.71875 -0.65625 C 2.5 -0.515625 2.203125 -0.484375 2.015625 -0.484375 C 1.5625 -0.484375 1.171875 -0.703125 1.171875 -1.0625 C 1.171875 -1.6875 2.921875 -1.71875 3.046875 -1.71875 Z M 3.046875 -1.25 "/>
</symbol>
<symbol overflow="visible" id="glyph0-2">
<path style="stroke:none;" d="M 4.015625 0 L 4.015625 -6.21875 L 3.296875 -6.21875 L 3.296875 -3.59375 C 2.796875 -4.015625 2.21875 -4.078125 1.921875 -4.078125 C 1.015625 -4.078125 0.328125 -3.140625 0.328125 -1.984375 C 0.328125 -0.828125 1.015625 0.09375 1.890625 0.09375 C 2.15625 0.09375 2.71875 0.03125 3.265625 -0.46875 L 3.265625 0 Z M 3.265625 -1.265625 C 3.265625 -1.09375 3.265625 -1.078125 3.171875 -0.953125 C 2.921875 -0.625 2.625 -0.484375 2.296875 -0.484375 C 1.71875 -0.484375 1.0625 -0.90625 1.0625 -1.984375 C 1.0625 -3.125 1.828125 -3.5 2.390625 -3.5 C 2.8125 -3.5 3.09375 -3.265625 3.265625 -3.03125 Z M 3.265625 -1.265625 "/>
</symbol>
<symbol overflow="visible" id="glyph0-3">
<path style="stroke:none;" d="M 3.015625 -3.4375 L 3.015625 -4.078125 C 2.375 -4.078125 1.78125 -3.75 1.40625 -3.21875 L 1.40625 -4.03125 L 0.75 -4.03125 L 0.75 0 L 1.46875 0 L 1.46875 -1.90625 C 1.46875 -2.859375 2.203125 -3.421875 3.015625 -3.4375 Z M 3.015625 -3.4375 "/>
</symbol>
<symbol overflow="visible" id="glyph0-4">
<path style="stroke:none;" d="M 3.828125 -1.96875 C 3.828125 -2.25 3.828125 -2.921875 3.46875 -3.46875 C 3.09375 -4.03125 2.515625 -4.140625 2.171875 -4.140625 C 1.140625 -4.140625 0.3125 -3.171875 0.3125 -2.03125 C 0.3125 -0.84375 1.1875 0.09375 2.3125 0.09375 C 2.75 0.09375 3.265625 -0.015625 3.78125 -0.34375 L 3.734375 -0.953125 C 3.171875 -0.5625 2.640625 -0.484375 2.328125 -0.484375 C 1.578125 -0.484375 1 -1.140625 0.984375 -1.96875 Z M 3.296875 -2.5 L 1.03125 -2.5 C 1.171875 -3.0625 1.609375 -3.546875 2.171875 -3.546875 C 2.515625 -3.546875 3.125 -3.40625 3.296875 -2.5 Z M 3.296875 -2.5 "/>
</symbol>
<symbol overflow="visible" id="glyph0-5">
<path style="stroke:none;" d="M 3.3125 -1.15625 C 3.3125 -1.46875 3.1875 -1.78125 2.875 -2.046875 C 2.578125 -2.3125 2.3125 -2.375 1.75 -2.46875 C 1.421875 -2.53125 0.984375 -2.625 0.984375 -3.046875 C 0.984375 -3.5625 1.609375 -3.5625 1.75 -3.5625 C 2.40625 -3.5625 2.796875 -3.359375 3.046875 -3.21875 L 3.171875 -3.84375 C 2.609375 -4.09375 2.203125 -4.140625 1.828125 -4.140625 C 1.625 -4.140625 0.3125 -4.140625 0.3125 -2.953125 C 0.3125 -2.515625 0.5625 -2.25 0.65625 -2.15625 C 1 -1.859375 1.234375 -1.8125 1.84375 -1.6875 C 2.140625 -1.640625 2.640625 -1.546875 2.640625 -1.078125 C 2.640625 -0.5 1.921875 -0.5 1.796875 -0.5 C 1.28125 -0.5 0.765625 -0.6875 0.375 -0.953125 L 0.265625 -0.296875 C 0.796875 -0.015625 1.34375 0.09375 1.796875 0.09375 C 2.390625 0.09375 3.3125 -0.09375 3.3125 -1.15625 Z M 3.3125 -1.15625 "/>
</symbol>
<symbol overflow="visible" id="glyph0-6">
<path style="stroke:none;" d="M 4.4375 -2 C 4.4375 -3.078125 3.859375 -4.078125 3 -4.078125 C 2.75 -4.078125 2.078125 -4.03125 1.46875 -3.546875 L 1.46875 -3.984375 L 0.75 -3.984375 L 0.75 1.734375 L 1.484375 1.734375 L 1.484375 -0.40625 C 1.828125 -0.09375 2.265625 0.09375 2.734375 0.09375 C 3.640625 0.09375 4.4375 -0.796875 4.4375 -2 Z M 3.6875 -1.984375 C 3.6875 -1.125 3.0625 -0.484375 2.359375 -0.484375 C 2.078125 -0.484375 1.75 -0.59375 1.484375 -1.046875 L 1.484375 -2.984375 C 1.609375 -3.140625 1.9375 -3.46875 2.453125 -3.46875 C 3.125 -3.46875 3.6875 -2.828125 3.6875 -1.984375 Z M 3.6875 -1.984375 "/>
</symbol>
<symbol overflow="visible" id="glyph0-7">
<path style="stroke:none;" d="M 4.328125 -1.96875 C 4.328125 -3.140625 3.4375 -4.140625 2.296875 -4.140625 C 1.1875 -4.140625 0.265625 -3.171875 0.265625 -1.96875 C 0.265625 -0.796875 1.203125 0.09375 2.296875 0.09375 C 3.40625 0.09375 4.328125 -0.8125 4.328125 -1.96875 Z M 3.59375 -2.0625 C 3.59375 -1.015625 2.953125 -0.515625 2.3125 -0.515625 C 1.609375 -0.515625 1.015625 -1.046875 1.015625 -2.0625 C 1.015625 -3.109375 1.6875 -3.546875 2.296875 -3.546875 C 2.9375 -3.546875 3.59375 -3.09375 3.59375 -2.0625 Z M 3.59375 -2.0625 "/>
</symbol>
<symbol overflow="visible" id="glyph0-8">
<path style="stroke:none;" d="M 1.453125 0 L 1.453125 -3.984375 L 0.734375 -3.984375 L 0.734375 0 Z M 1.53125 -5.046875 L 1.53125 -5.90625 L 0.671875 -5.90625 L 0.671875 -5.046875 Z M 1.53125 -5.046875 "/>
</symbol>
<symbol overflow="visible" id="glyph0-9">
<path style="stroke:none;" d="M 4.03125 0 L 4.03125 -2.65625 C 4.03125 -3.328125 3.84375 -4.078125 2.765625 -4.078125 C 2.046875 -4.078125 1.625 -3.671875 1.421875 -3.40625 L 1.421875 -4.03125 L 0.71875 -4.03125 L 0.71875 0 L 1.46875 0 L 1.46875 -2.1875 C 1.46875 -2.78125 1.703125 -3.5 2.390625 -3.5 C 3.28125 -3.5 3.28125 -2.859375 3.28125 -2.59375 L 3.28125 0 Z M 4.03125 0 "/>
</symbol>
<symbol overflow="visible" id="glyph0-10">
<path style="stroke:none;" d="M 3.0625 -0.234375 L 2.921875 -0.796875 C 2.6875 -0.625 2.375 -0.515625 2.09375 -0.515625 C 1.734375 -0.515625 1.625 -0.828125 1.625 -1.296875 L 1.625 -3.421875 L 2.921875 -3.421875 L 2.921875 -3.984375 L 1.625 -3.984375 L 1.625 -5.125 L 0.953125 -5.125 L 0.953125 -3.984375 L 0.171875 -3.984375 L 0.171875 -3.421875 L 0.9375 -3.421875 L 0.9375 -1.125 C 0.9375 -0.59375 1.046875 0.09375 1.703125 0.09375 C 2.09375 0.09375 2.5625 0.015625 3.0625 -0.234375 Z M 3.0625 -0.234375 "/>
</symbol>
<symbol overflow="visible" id="glyph0-11">
<path style="stroke:none;" d="M 4.4375 -2 C 4.4375 -3.078125 3.84375 -4.078125 2.953125 -4.078125 C 2.71875 -4.078125 2.078125 -4.03125 1.46875 -3.5625 L 1.46875 -6.21875 L 0.75 -6.21875 L 0.75 0 L 1.484375 0 L 1.484375 -0.421875 C 1.609375 -0.296875 2.0625 0.09375 2.71875 0.09375 C 3.65625 0.09375 4.4375 -0.8125 4.4375 -2 Z M 3.6875 -2 C 3.6875 -0.84375 2.921875 -0.484375 2.375 -0.484375 C 1.796875 -0.484375 1.53125 -0.953125 1.484375 -1.046875 L 1.484375 -3 C 1.625 -3.1875 1.953125 -3.5 2.453125 -3.5 C 3 -3.5 3.6875 -3.125 3.6875 -2 Z M 3.6875 -2 "/>
</symbol>
<symbol overflow="visible" id="glyph0-12">
<path style="stroke:none;" d="M 6.640625 -2.25 C 6.640625 -2.4375 6.46875 -2.4375 6.328125 -2.4375 L 3.78125 -2.4375 L 3.78125 -5 C 3.78125 -5.140625 3.78125 -5.3125 3.578125 -5.3125 C 3.390625 -5.3125 3.390625 -5.125 3.390625 -5 L 3.390625 -2.4375 L 0.828125 -2.4375 C 0.703125 -2.4375 0.515625 -2.4375 0.515625 -2.25 C 0.515625 -2.046875 0.6875 -2.046875 0.828125 -2.046875 L 3.390625 -2.046875 L 3.390625 0.515625 C 3.390625 0.65625 3.390625 0.828125 3.59375 0.828125 C 3.78125 0.828125 3.78125 0.640625 3.78125 0.515625 L 3.78125 -2.046875 L 6.328125 -2.046875 C 6.453125 -2.046875 6.640625 -2.046875 6.640625 -2.25 Z M 6.640625 -2.25 "/>
</symbol>
<symbol overflow="visible" id="glyph0-13">
<path style="stroke:none;" d="M 1.671875 0 L 1.671875 -0.765625 L 0.890625 -0.765625 L 0.890625 0 Z M 3.265625 0 L 3.265625 -0.765625 L 2.5 -0.765625 L 2.5 0 Z M 4.859375 0 L 4.859375 -0.765625 L 4.09375 -0.765625 L 4.09375 0 Z M 4.859375 0 "/>
</symbol>
<symbol overflow="visible" id="glyph0-14">
<path style="stroke:none;" d="M 3.0625 2.234375 C 2.578125 1.734375 1.46875 0.59375 1.46875 -2.25 C 1.46875 -5.078125 2.578125 -6.21875 3.0625 -6.734375 L 2.484375 -6.734375 C 1.421875 -5.84375 0.71875 -4.3125 0.71875 -2.25 C 0.71875 -0.109375 1.46875 1.375 2.484375 2.234375 Z M 3.0625 2.234375 "/>
</symbol>
<symbol overflow="visible" id="glyph0-15">
<path style="stroke:none;" d="M 6.578125 0 L 6.578125 -2.65625 C 6.578125 -3.328125 6.40625 -4.078125 5.3125 -4.078125 C 4.5625 -4.078125 4.140625 -3.625 3.921875 -3.34375 C 3.859375 -3.53125 3.671875 -4.078125 2.765625 -4.078125 C 2.046875 -4.078125 1.625 -3.671875 1.421875 -3.40625 L 1.421875 -4.03125 L 0.71875 -4.03125 L 0.71875 0 L 1.46875 0 L 1.46875 -2.1875 C 1.46875 -2.78125 1.703125 -3.5 2.390625 -3.5 C 3.28125 -3.5 3.28125 -2.859375 3.28125 -2.59375 L 3.28125 0 L 4.03125 0 L 4.03125 -2.1875 C 4.03125 -2.78125 4.265625 -3.5 4.9375 -3.5 C 5.84375 -3.5 5.84375 -2.859375 5.84375 -2.59375 L 5.84375 0 Z M 6.578125 0 "/>
</symbol>
<symbol overflow="visible" id="glyph0-16">
<path style="stroke:none;" d="M 4.109375 -3.984375 L 3.40625 -3.984375 C 2.71875 -2.34375 2.234375 -1.15625 2.1875 -0.53125 C 2.15625 -0.9375 1.78125 -1.859375 1.671875 -2.125 C 1.3125 -3.046875 1.15625 -3.34375 0.875 -3.984375 L 0.125 -3.984375 L 1.921875 0 L 1.59375 0.796875 C 1.359375 1.296875 1.1875 1.296875 1.0625 1.296875 C 0.921875 1.296875 0.59375 1.265625 0.328125 1.140625 L 0.390625 1.765625 C 0.40625 1.78125 0.75 1.84375 1.046875 1.84375 C 1.296875 1.84375 1.671875 1.84375 2.125 0.765625 Z M 4.109375 -3.984375 "/>
</symbol>
<symbol overflow="visible" id="glyph0-17">
<path style="stroke:none;" d="M 2.859375 -2.25 C 2.859375 -4.375 2.109375 -5.875 1.09375 -6.734375 L 0.515625 -6.734375 C 1 -6.234375 2.109375 -5.078125 2.109375 -2.25 C 2.109375 0.59375 1 1.734375 0.515625 2.234375 L 1.09375 2.234375 C 2.15625 1.34375 2.859375 -0.1875 2.859375 -2.25 Z M 2.859375 -2.25 "/>
</symbol>
<symbol overflow="visible" id="glyph0-18">
<path style="stroke:none;" d="M 4.25 0 L 2.40625 -2.046875 L 4.09375 -3.984375 L 3.3125 -3.984375 L 2.09375 -2.515625 L 0.828125 -3.984375 L 0.046875 -3.984375 L 1.78125 -2.046875 L 0 0 L 0.78125 0 L 2.09375 -1.671875 L 3.453125 0 Z M 4.25 0 "/>
</symbol>
<symbol overflow="visible" id="glyph0-19">
<path style="stroke:none;" d="M 3.828125 -0.328125 L 3.78125 -0.96875 C 3.34375 -0.671875 2.875 -0.515625 2.328125 -0.515625 C 1.5625 -0.515625 1.0625 -1.140625 1.0625 -2 C 1.0625 -2.6875 1.40625 -3.53125 2.375 -3.53125 C 2.9375 -3.53125 3.21875 -3.421875 3.671875 -3.109375 L 3.78125 -3.734375 C 3.28125 -4.03125 3 -4.140625 2.359375 -4.140625 C 1.078125 -4.140625 0.328125 -3.0625 0.328125 -1.984375 C 0.328125 -0.875 1.15625 0.09375 2.328125 0.09375 C 2.953125 0.09375 3.421875 -0.09375 3.828125 -0.328125 Z M 3.828125 -0.328125 "/>
</symbol>
<symbol overflow="visible" id="glyph0-20">
<path style="stroke:none;" d="M 1.453125 0 L 1.453125 -6.21875 L 0.734375 -6.21875 L 0.734375 0 Z M 1.453125 0 "/>
</symbol>
<symbol overflow="visible" id="glyph0-21">
<path style="stroke:none;" d="M 4.46875 -3.484375 L 4.375 -4.078125 C 4.203125 -4.078125 3.59375 -4.078125 2.9375 -3.796875 C 2.796875 -3.890625 2.46875 -4.078125 2.046875 -4.078125 C 1.21875 -4.078125 0.5625 -3.40625 0.5625 -2.625 C 0.5625 -2.390625 0.625 -2.0625 0.875 -1.71875 C 0.703125 -1.484375 0.609375 -1.21875 0.609375 -0.96875 C 0.609375 -0.71875 0.703125 -0.46875 0.828125 -0.296875 C 0.375 0 0.265625 0.390625 0.265625 0.640625 C 0.265625 1.296875 1.140625 1.84375 2.296875 1.84375 C 3.453125 1.84375 4.34375 1.296875 4.34375 0.625 C 4.34375 -0.625 2.859375 -0.640625 2.453125 -0.640625 L 1.625 -0.640625 C 1.515625 -0.640625 1.109375 -0.640625 1.109375 -1.109375 C 1.109375 -1.28125 1.140625 -1.34375 1.1875 -1.40625 C 1.4375 -1.25 1.734375 -1.140625 2.046875 -1.140625 C 2.875 -1.140625 3.53125 -1.828125 3.53125 -2.609375 C 3.53125 -2.921875 3.4375 -3.171875 3.296875 -3.40625 C 3.25 -3.453125 3.25 -3.46875 3.25 -3.46875 C 3.25 -3.515625 3.6875 -3.515625 3.8125 -3.515625 C 3.890625 -3.515625 4.21875 -3.515625 4.46875 -3.484375 Z M 2.859375 -2.625 C 2.859375 -1.890625 2.40625 -1.6875 2.046875 -1.6875 C 1.625 -1.6875 1.234375 -1.953125 1.234375 -2.609375 C 1.234375 -3.34375 1.6875 -3.546875 2.046875 -3.546875 C 2.453125 -3.546875 2.859375 -3.28125 2.859375 -2.625 Z M 3.671875 0.640625 C 3.671875 1.03125 3.015625 1.3125 2.3125 1.3125 C 1.609375 1.3125 0.921875 1.046875 0.921875 0.625 C 0.921875 0.625 0.921875 0.046875 1.609375 0.046875 L 2.453125 0.046875 C 2.640625 0.046875 3.671875 0.046875 3.671875 0.640625 Z M 3.671875 0.640625 "/>
</symbol>
<symbol overflow="visible" id="glyph1-0">
<path style="stroke:none;" d=""/>
</symbol>
<symbol overflow="visible" id="glyph1-1">
<path style="stroke:none;" d="M 4.265625 -2.734375 C 4.265625 -4.40625 3.359375 -5.578125 2.34375 -5.578125 C 1.34375 -5.578125 0.4375 -4.375 0.4375 -2.75 C 0.4375 -1.078125 1.34375 0.09375 2.34375 0.09375 C 3.359375 0.09375 4.265625 -1.109375 4.265625 -2.734375 Z M 3.609375 -2.828125 C 3.609375 -1.53125 3.046875 -0.484375 2.34375 -0.484375 C 1.65625 -0.484375 1.09375 -1.546875 1.09375 -2.828125 C 1.09375 -4.140625 1.703125 -5 2.34375 -5 C 3 -5 3.609375 -4.125 3.609375 -2.828125 Z M 3.609375 -2.828125 "/>
</symbol>
<symbol overflow="visible" id="glyph1-2">
<path style="stroke:none;" d="M 4.4375 -0.28125 C 4.4375 -0.578125 4.203125 -0.578125 4.046875 -0.578125 L 3.6875 -0.578125 L 2.59375 -1.984375 L 3.5625 -3.28125 L 3.921875 -3.28125 C 4.0625 -3.28125 4.3125 -3.28125 4.3125 -3.5625 C 4.3125 -3.859375 4.078125 -3.859375 3.921875 -3.859375 L 2.859375 -3.859375 C 2.71875 -3.859375 2.484375 -3.859375 2.484375 -3.578125 C 2.484375 -3.28125 2.703125 -3.28125 2.921875 -3.28125 L 2.328125 -2.453125 L 1.703125 -3.28125 C 1.921875 -3.28125 2.140625 -3.28125 2.140625 -3.578125 C 2.140625 -3.859375 1.890625 -3.859375 1.765625 -3.859375 L 0.6875 -3.859375 C 0.5625 -3.859375 0.3125 -3.859375 0.3125 -3.578125 C 0.3125 -3.28125 0.546875 -3.28125 0.6875 -3.28125 L 1.046875 -3.28125 L 2.0625 -1.984375 L 1 -0.578125 L 0.640625 -0.578125 C 0.5 -0.578125 0.265625 -0.578125 0.265625 -0.28125 C 0.265625 0 0.5 0 0.640625 0 L 1.703125 0 C 1.84375 0 2.078125 0 2.078125 -0.28125 C 2.078125 -0.578125 1.875 -0.578125 1.609375 -0.578125 L 2.328125 -1.625 L 3.0625 -0.578125 C 2.828125 -0.578125 2.609375 -0.578125 2.609375 -0.28125 C 2.609375 0 2.859375 0 2.984375 0 L 4.046875 0 C 4.1875 0 4.4375 0 4.4375 -0.28125 Z M 4.4375 -0.28125 "/>
</symbol>
<symbol overflow="visible" id="glyph1-3">
<path style="stroke:none;" d="M 4.3125 -1.5625 C 4.3125 -2.3125 3.625 -2.796875 3.0625 -2.953125 C 3.578125 -3.109375 4.171875 -3.515625 4.171875 -4.140625 C 4.171875 -4.875 3.421875 -5.578125 2.34375 -5.578125 C 1.28125 -5.578125 0.515625 -4.875 0.515625 -4.140625 C 0.515625 -3.515625 1.125 -3.109375 1.640625 -2.953125 C 1.0625 -2.796875 0.390625 -2.296875 0.390625 -1.5625 C 0.390625 -0.6875 1.21875 0.09375 2.34375 0.09375 C 3.484375 0.09375 4.3125 -0.703125 4.3125 -1.5625 Z M 3.515625 -4.125 C 3.515625 -3.625 2.984375 -3.25 2.34375 -3.25 C 1.71875 -3.25 1.1875 -3.625 1.1875 -4.125 C 1.1875 -4.578125 1.671875 -5 2.34375 -5 C 3.03125 -5 3.515625 -4.578125 3.515625 -4.125 Z M 3.640625 -1.578125 C 3.640625 -0.984375 3.078125 -0.484375 2.34375 -0.484375 C 1.625 -0.484375 1.0625 -0.984375 1.0625 -1.578125 C 1.0625 -2.125 1.5625 -2.65625 2.34375 -2.65625 C 3.140625 -2.65625 3.640625 -2.125 3.640625 -1.578125 Z M 3.640625 -1.578125 "/>
</symbol>
<symbol overflow="visible" id="glyph1-4">
<path style="stroke:none;" d="M 3.984375 -0.28125 C 3.984375 -0.578125 3.765625 -0.578125 3.609375 -0.578125 L 2.8125 -0.578125 L 2.8125 -5.203125 C 2.8125 -5.34375 2.8125 -5.578125 2.53125 -5.578125 C 2.375 -5.578125 2.3125 -5.5 2.25 -5.375 C 1.96875 -4.75 1.609375 -4.515625 1.25 -4.484375 C 1.125 -4.46875 0.921875 -4.453125 0.921875 -4.1875 C 0.921875 -4.015625 1.015625 -3.90625 1.234375 -3.90625 C 1.59375 -3.90625 1.953125 -4.09375 2.15625 -4.265625 L 2.15625 -0.578125 L 1.359375 -0.578125 C 1.203125 -0.578125 0.984375 -0.578125 0.984375 -0.28125 C 0.984375 0 1.21875 0 1.359375 0 L 3.609375 0 C 3.75 0 3.984375 0 3.984375 -0.28125 Z M 3.984375 -0.28125 "/>
</symbol>
<symbol overflow="visible" id="glyph1-5">
<path style="stroke:none;" d="M 4.4375 -1.796875 C 4.4375 -2.09375 4.203125 -2.09375 4.0625 -2.09375 L 3.40625 -2.09375 L 3.40625 -5.21875 C 3.40625 -5.53125 3.328125 -5.609375 3.015625 -5.609375 L 2.75 -5.609375 C 2.53125 -5.609375 2.46875 -5.59375 2.359375 -5.40625 L 0.34375 -2.21875 C 0.265625 -2.09375 0.265625 -2.078125 0.265625 -1.890625 C 0.265625 -1.625 0.296875 -1.5 0.640625 -1.5 L 2.859375 -1.5 L 2.859375 -0.578125 L 2.328125 -0.578125 C 2.203125 -0.578125 1.953125 -0.578125 1.953125 -0.296875 C 1.953125 0 2.1875 0 2.328125 0 L 3.9375 0 C 4.0625 0 4.3125 0 4.3125 -0.28125 C 4.3125 -0.578125 4.078125 -0.578125 3.9375 -0.578125 L 3.40625 -0.578125 L 3.40625 -1.5 L 4.0625 -1.5 C 4.1875 -1.5 4.4375 -1.5 4.4375 -1.796875 Z M 2.859375 -2.09375 L 0.9375 -2.09375 L 2.859375 -5.140625 Z M 2.859375 -2.09375 "/>
</symbol>
<symbol overflow="visible" id="glyph2-0">
<path style="stroke:none;" d=""/>
</symbol>
<symbol overflow="visible" id="glyph2-1">
<path style="stroke:none;" d="M 4.296875 -2.328125 C 4.296875 -3.484375 3.765625 -4.265625 2.421875 -4.265625 C 0.984375 -4.265625 0.28125 -3.453125 0.28125 -2.09375 C 0.28125 -0.625 1.125 0.09375 2.53125 0.09375 C 2.875 0.09375 3.390625 0.046875 3.984375 -0.234375 C 4.171875 -0.34375 4.25 -0.375 4.25 -0.46875 C 4.25 -0.53125 4.21875 -0.796875 4.203125 -0.875 C 4.171875 -1.140625 4.15625 -1.15625 4.078125 -1.15625 C 4.046875 -1.15625 4.03125 -1.15625 3.921875 -1.0625 C 3.40625 -0.609375 2.859375 -0.546875 2.578125 -0.546875 C 1.5625 -0.546875 1.453125 -1.34375 1.421875 -1.921875 L 3.859375 -1.921875 C 4.078125 -1.921875 4.296875 -1.921875 4.296875 -2.328125 Z M 3.296875 -2.390625 L 1.4375 -2.390625 C 1.46875 -2.9375 1.640625 -3.609375 2.421875 -3.609375 C 3.140625 -3.609375 3.28125 -3.09375 3.296875 -2.390625 Z M 3.296875 -2.390625 "/>
</symbol>
<symbol overflow="visible" id="glyph2-2">
<path style="stroke:none;" d="M 4.25 -0.203125 C 4.25 -0.265625 4.21875 -0.3125 4.15625 -0.390625 L 2.703125 -2.125 L 4 -3.71875 C 4.09375 -3.828125 4.09375 -3.859375 4.09375 -3.90625 C 4.09375 -4.109375 3.90625 -4.109375 3.78125 -4.109375 L 3.390625 -4.109375 C 3.234375 -4.109375 3.125 -4.109375 3 -3.96875 C 2.953125 -3.921875 2.375 -3.140625 2.21875 -2.9375 L 1.4375 -3.90625 C 1.296875 -4.09375 1.1875 -4.109375 0.984375 -4.109375 L 0.59375 -4.109375 C 0.46875 -4.109375 0.28125 -4.109375 0.28125 -3.90625 C 0.28125 -3.84375 0.3125 -3.8125 0.375 -3.734375 L 1.71875 -2.125 L 0.3125 -0.375 C 0.25 -0.3125 0.21875 -0.265625 0.21875 -0.203125 C 0.21875 0 0.40625 0 0.53125 0 L 0.921875 0 C 1.21875 0 1.234375 -0.03125 1.4375 -0.328125 L 2.203125 -1.46875 L 3.125 -0.171875 C 3.25 0 3.359375 0 3.546875 0 L 3.9375 0 C 4.0625 0 4.25 0 4.25 -0.203125 Z M 4.25 -0.203125 "/>
</symbol>
<symbol overflow="visible" id="glyph2-3">
<path style="stroke:none;" d="M 4.09375 -0.453125 C 4.09375 -0.546875 4.0625 -0.953125 4.046875 -1.078125 C 4.046875 -1.109375 4.03125 -1.1875 3.9375 -1.1875 C 3.90625 -1.1875 3.890625 -1.1875 3.796875 -1.109375 C 3.640625 -0.96875 3.21875 -0.59375 2.484375 -0.59375 C 1.546875 -0.59375 1.546875 -1.5 1.546875 -2.078125 C 1.546875 -2.8125 1.59375 -3.5625 2.515625 -3.5625 C 3.09375 -3.5625 3.34375 -3.421875 3.65625 -3.140625 C 3.765625 -3.046875 3.78125 -3.046875 3.828125 -3.046875 C 3.90625 -3.046875 3.921875 -3.125 3.9375 -3.171875 C 3.953125 -3.234375 4.046875 -3.734375 4.046875 -3.78125 C 4.046875 -3.859375 3.984375 -3.90625 3.828125 -3.96875 C 3.40625 -4.171875 3.125 -4.265625 2.5 -4.265625 C 1.171875 -4.265625 0.328125 -3.625 0.328125 -2.0625 C 0.328125 -0.578125 1.109375 0.09375 2.453125 0.09375 C 2.703125 0.09375 3.234375 0.09375 3.84375 -0.21875 C 4.09375 -0.34375 4.09375 -0.359375 4.09375 -0.453125 Z M 4.09375 -0.453125 "/>
</symbol>
<symbol overflow="visible" id="glyph2-4">
<path style="stroke:none;" d="M 4.6875 -2.078125 C 4.6875 -2.515625 4.6875 -4.203125 3.0625 -4.203125 C 2.53125 -4.203125 2.0625 -3.984375 1.734375 -3.6875 C 1.734375 -4.015625 1.609375 -4.109375 1.3125 -4.109375 L 0.984375 -4.109375 C 0.65625 -4.109375 0.546875 -4.015625 0.546875 -3.671875 L 0.546875 1.3125 C 0.546875 1.625 0.640625 1.734375 0.984375 1.734375 L 1.34375 1.734375 C 1.671875 1.734375 1.765625 1.625 1.765625 1.3125 L 1.765625 -0.34375 C 2.171875 0.09375 2.65625 0.09375 2.796875 0.09375 C 4.6875 0.09375 4.6875 -1.625 4.6875 -2.078125 Z M 3.46875 -2.046875 C 3.46875 -1.6875 3.46875 -0.546875 2.453125 -0.546875 C 2.25 -0.546875 2.09375 -0.625 1.984375 -0.703125 C 1.765625 -0.859375 1.765625 -0.890625 1.765625 -1.0625 L 1.765625 -3.203125 C 1.859375 -3.296875 2.15625 -3.5 2.546875 -3.5 C 3.46875 -3.5 3.46875 -2.453125 3.46875 -2.046875 Z M 3.46875 -2.046875 "/>
</symbol>
<symbol overflow="visible" id="glyph2-5">
<path style="stroke:none;" d="M 3.34375 -0.421875 C 3.34375 -0.453125 3.328125 -0.515625 3.28125 -0.703125 C 3.234375 -0.875 3.203125 -0.9375 3.125 -0.9375 C 3.078125 -0.9375 3.078125 -0.921875 3.015625 -0.875 C 2.921875 -0.796875 2.6875 -0.59375 2.3125 -0.59375 C 2.09375 -0.59375 1.953125 -0.75 1.953125 -1.34375 L 1.953125 -3.46875 L 2.75 -3.46875 C 2.859375 -3.46875 3.1875 -3.46875 3.1875 -3.78125 C 3.1875 -4.109375 2.859375 -4.109375 2.75 -4.109375 L 1.953125 -4.109375 L 1.953125 -4.859375 C 1.953125 -5.140625 1.890625 -5.28125 1.53125 -5.28125 L 1.25 -5.28125 C 0.921875 -5.28125 0.8125 -5.1875 0.8125 -4.859375 L 0.8125 -4.109375 L 0.609375 -4.109375 C 0.515625 -4.109375 0.171875 -4.109375 0.171875 -3.78125 C 0.171875 -3.46875 0.5 -3.46875 0.609375 -3.46875 L 0.796875 -3.46875 L 0.796875 -1.1875 C 0.796875 -0.28125 1.109375 0.09375 1.734375 0.09375 C 1.8125 0.09375 2.203125 0.09375 2.671875 -0.046875 C 2.828125 -0.09375 3.34375 -0.25 3.34375 -0.421875 Z M 3.34375 -0.421875 "/>
</symbol>
<symbol overflow="visible" id="glyph2-6">
<path style="stroke:none;" d="M 1.734375 -0.4375 L 1.734375 -3.671875 C 1.734375 -3.96875 1.671875 -4.109375 1.3125 -4.109375 L 0.984375 -4.109375 C 0.65625 -4.109375 0.546875 -4.015625 0.546875 -3.671875 L 0.546875 -0.4375 C 0.546875 -0.109375 0.640625 0 0.984375 0 L 1.3125 0 C 1.65625 0 1.734375 -0.109375 1.734375 -0.4375 Z M 1.796875 -5.4375 L 1.796875 -5.609375 C 1.796875 -5.890625 1.734375 -6.03125 1.375 -6.03125 L 0.921875 -6.03125 C 0.578125 -6.03125 0.484375 -5.921875 0.484375 -5.609375 L 0.484375 -5.4375 C 0.484375 -5.171875 0.53125 -5 0.921875 -5 L 1.375 -5 C 1.75 -5 1.796875 -5.171875 1.796875 -5.4375 Z M 1.796875 -5.4375 "/>
</symbol>
<symbol overflow="visible" id="glyph2-7">
<path style="stroke:none;" d="M 4.640625 -2.015625 C 4.640625 -3.484375 3.921875 -4.265625 2.46875 -4.265625 C 0.96875 -4.265625 0.28125 -3.46875 0.28125 -2.015625 C 0.28125 -0.5625 1.046875 0.09375 2.453125 0.09375 C 3.859375 0.09375 4.640625 -0.546875 4.640625 -2.015625 Z M 3.421875 -2.125 C 3.421875 -1.421875 3.421875 -0.59375 2.46875 -0.59375 C 1.5 -0.59375 1.5 -1.40625 1.5 -2.125 C 1.5 -2.8125 1.5 -3.609375 2.453125 -3.609375 C 3.421875 -3.609375 3.421875 -2.828125 3.421875 -2.125 Z M 3.421875 -2.125 "/>
</symbol>
<symbol overflow="visible" id="glyph2-8">
<path style="stroke:none;" d="M 4.484375 -0.4375 L 4.484375 -2.921875 C 4.484375 -3.84375 4.09375 -4.203125 3.171875 -4.203125 C 2.234375 -4.203125 1.828125 -3.53125 1.71875 -3.28125 L 1.703125 -3.28125 L 1.703125 -3.734375 C 1.703125 -4.015625 1.640625 -4.15625 1.28125 -4.15625 L 0.96875 -4.15625 C 0.640625 -4.15625 0.53125 -4.0625 0.53125 -3.734375 L 0.53125 -0.4375 C 0.53125 -0.109375 0.640625 0 0.96875 0 L 1.328125 0 C 1.671875 0 1.765625 -0.109375 1.765625 -0.4375 L 1.765625 -2.40625 C 1.765625 -3.1875 2.28125 -3.5625 2.75 -3.5625 C 3.171875 -3.5625 3.265625 -3.359375 3.265625 -2.890625 L 3.265625 -0.4375 C 3.265625 -0.140625 3.328125 0 3.6875 0 L 4.046875 0 C 4.390625 0 4.484375 -0.109375 4.484375 -0.4375 Z M 4.484375 -0.4375 "/>
</symbol>
<symbol overflow="visible" id="glyph2-9">
<path style="stroke:none;" d="M 4.25 -0.4375 L 4.25 -2.828125 C 4.25 -4.25 2.890625 -4.265625 2.4375 -4.265625 C 2.015625 -4.265625 1.5625 -4.21875 0.96875 -3.96875 C 0.78125 -3.890625 0.734375 -3.859375 0.734375 -3.765625 C 0.734375 -3.703125 0.796875 -3.1875 0.796875 -3.109375 C 0.8125 -3.0625 0.859375 -3.015625 0.921875 -3.015625 C 0.953125 -3.015625 0.984375 -3.046875 1.015625 -3.0625 C 1.40625 -3.46875 1.84375 -3.671875 2.40625 -3.671875 C 2.890625 -3.671875 3.03125 -3.375 3.03125 -2.84375 L 3.03125 -2.53125 C 2.71875 -2.53125 0.375 -2.515625 0.375 -1.1875 C 0.375 -0.5625 0.875 0.09375 1.65625 0.09375 C 1.96875 0.09375 2.640625 0.015625 3.0625 -0.609375 L 3.0625 -0.4375 C 3.0625 -0.140625 3.125 0 3.484375 0 L 3.828125 0 C 4.15625 0 4.25 -0.109375 4.25 -0.4375 Z M 3.03125 -1.375 C 3.03125 -0.546875 2.171875 -0.546875 2.15625 -0.546875 C 1.78125 -0.546875 1.53125 -0.875 1.53125 -1.203125 C 1.53125 -2.09375 2.78125 -2.15625 3.03125 -2.15625 Z M 3.03125 -1.375 "/>
</symbol>
<symbol overflow="visible" id="glyph2-10">
<path style="stroke:none;" d="M 4.6875 -2.078125 C 4.6875 -2.5 4.6875 -4.203125 3 -4.203125 C 2.265625 -4.203125 1.828125 -3.796875 1.734375 -3.703125 L 1.734375 -5.796875 C 1.734375 -6.078125 1.671875 -6.21875 1.3125 -6.21875 L 0.984375 -6.21875 C 0.65625 -6.21875 0.546875 -6.125 0.546875 -5.796875 L 0.546875 -0.4375 C 0.546875 -0.109375 0.640625 0 0.984375 0 L 1.34375 0 C 1.484375 0 1.765625 0 1.765625 -0.34375 C 2.171875 0.09375 2.640625 0.09375 2.78125 0.09375 C 4.6875 0.09375 4.6875 -1.625 4.6875 -2.078125 Z M 3.46875 -2.0625 C 3.46875 -1.40625 3.46875 -0.546875 2.46875 -0.546875 C 2.09375 -0.546875 1.859375 -0.765625 1.765625 -0.890625 L 1.765625 -3.25 C 1.890625 -3.359375 2.15625 -3.5625 2.5625 -3.5625 C 3.46875 -3.5625 3.46875 -2.734375 3.46875 -2.0625 Z M 3.46875 -2.0625 "/>
</symbol>
<symbol overflow="visible" id="glyph2-11">
<path style="stroke:none;" d="M 1.734375 -0.4375 L 1.734375 -5.796875 C 1.734375 -6.078125 1.671875 -6.21875 1.3125 -6.21875 L 0.984375 -6.21875 C 0.65625 -6.21875 0.546875 -6.125 0.546875 -5.796875 L 0.546875 -0.4375 C 0.546875 -0.109375 0.640625 0 0.984375 0 L 1.3125 0 C 1.65625 0 1.734375 -0.109375 1.734375 -0.4375 Z M 1.734375 -0.4375 "/>
</symbol>
<symbol overflow="visible" id="glyph3-0">
<path style="stroke:none;" d="M 0.4375 0 L 3.75 0 L 3.75 -4.59375 L 0.4375 -4.59375 Z M 1.1875 -0.40625 L 1.703125 -1.328125 L 2.078125 -2.046875 L 2.109375 -2.046875 L 2.46875 -1.328125 L 2.96875 -0.40625 Z M 0.890625 -0.765625 L 0.890625 -3.984375 L 1.78125 -2.375 Z M 2.078125 -2.703125 L 1.734375 -3.359375 L 1.265625 -4.1875 L 2.90625 -4.1875 L 2.453125 -3.359375 L 2.109375 -2.703125 Z M 2.40625 -2.375 L 3.296875 -3.984375 L 3.296875 -0.765625 Z M 2.40625 -2.375 "/>
</symbol>
<symbol overflow="visible" id="glyph3-1">
<path style="stroke:none;" d="M 0.640625 0 L 1.21875 0 L 1.21875 -2.359375 C 1.609375 -2.78125 1.890625 -2.96875 2.296875 -2.96875 C 2.84375 -2.96875 3.078125 -2.671875 3.078125 -2.03125 L 3.078125 0 L 3.640625 0 L 3.640625 -2.109375 C 3.640625 -3 3.28125 -3.46875 2.46875 -3.46875 C 1.9375 -3.46875 1.546875 -3.1875 1.203125 -2.8125 L 1.1875 -2.8125 L 1.21875 -3.609375 L 1.21875 -4.96875 L 0.640625 -4.96875 Z M 0.640625 0 "/>
</symbol>
<symbol overflow="visible" id="glyph3-2">
<path style="stroke:none;" d="M 1.71875 0.078125 C 2.1875 0.078125 2.671875 -0.171875 3.046875 -0.453125 L 3.078125 -0.453125 L 3.125 0 L 3.59375 0 L 3.59375 -2.078125 C 3.59375 -2.921875 3.140625 -3.46875 2.21875 -3.46875 C 1.625 -3.46875 1.046875 -3.203125 0.703125 -2.984375 L 0.9375 -2.59375 C 1.25 -2.78125 1.671875 -3 2.125 -3 C 2.78125 -3 3 -2.609375 3.015625 -2.140625 C 1.265625 -2 0.5625 -1.640625 0.5625 -0.875 C 0.5625 -0.265625 1.078125 0.078125 1.71875 0.078125 Z M 1.875 -0.375 C 1.484375 -0.375 1.125 -0.53125 1.125 -0.921875 C 1.125 -1.359375 1.5625 -1.65625 3.015625 -1.765625 L 3.015625 -0.875 C 2.640625 -0.5625 2.25 -0.375 1.875 -0.375 Z M 1.875 -0.375 "/>
</symbol>
<symbol overflow="visible" id="glyph3-3">
<path style="stroke:none;" d="M 0.640625 0 L 1.21875 0 L 1.21875 -2.359375 C 1.609375 -2.78125 1.890625 -2.96875 2.296875 -2.96875 C 2.84375 -2.96875 3.078125 -2.671875 3.078125 -2.03125 L 3.078125 0 L 3.640625 0 L 3.640625 -2.109375 C 3.640625 -3 3.28125 -3.46875 2.46875 -3.46875 C 1.9375 -3.46875 1.546875 -3.1875 1.203125 -2.8125 L 1.171875 -2.8125 L 1.125 -3.390625 L 0.640625 -3.390625 Z M 0.640625 0 "/>
</symbol>
<symbol overflow="visible" id="glyph3-4">
<path style="stroke:none;" d="M 1.890625 0.078125 C 2.3125 0.078125 2.703125 -0.15625 2.984375 -0.453125 L 3.015625 -0.453125 L 3.0625 0 L 3.53125 0 L 3.53125 -4.96875 L 2.96875 -4.96875 L 2.96875 -3.65625 L 2.984375 -3.03125 L 2.96875 -3.03125 C 2.671875 -3.3125 2.359375 -3.46875 1.953125 -3.46875 C 1.15625 -3.46875 0.421875 -2.78125 0.421875 -1.6875 C 0.421875 -0.5625 1 0.078125 1.890625 0.078125 Z M 2 -0.390625 C 1.375 -0.390625 1.015625 -0.890625 1.015625 -1.6875 C 1.015625 -2.46875 1.484375 -2.984375 2.0625 -2.984375 C 2.359375 -2.984375 2.65625 -2.875 2.96875 -2.59375 L 2.96875 -0.90625 C 2.65625 -0.578125 2.34375 -0.390625 2 -0.390625 Z M 2 -0.390625 "/>
</symbol>
<symbol overflow="visible" id="glyph3-5">
<path style="stroke:none;" d="M 2.84375 0.078125 C 3.203125 0.078125 3.421875 0.015625 3.75 -0.125 L 3.59375 -0.546875 C 3.359375 -0.4375 3.15625 -0.390625 2.96875 -0.390625 C 2.5625 -0.390625 2.296875 -0.59375 2.296875 -1.09375 L 2.296875 -4.96875 L 0.5625 -4.96875 L 0.5625 -4.5 L 1.71875 -4.5 L 1.71875 -1.140625 C 1.71875 -0.328125 2.125 0.078125 2.84375 0.078125 Z M 2.84375 0.078125 "/>
</symbol>
<symbol overflow="visible" id="glyph3-6">
<path style="stroke:none;" d="M 2.296875 0.078125 C 2.84375 0.078125 3.28125 -0.09375 3.609375 -0.328125 L 3.40625 -0.703125 C 3.09375 -0.5 2.78125 -0.375 2.375 -0.375 C 1.671875 -0.375 1.125 -0.765625 1.046875 -1.53125 L 3.71875 -1.53125 C 3.734375 -1.625 3.75 -1.75 3.75 -1.875 C 3.75 -2.84375 3.171875 -3.46875 2.203125 -3.46875 C 1.296875 -3.46875 0.46875 -2.796875 0.46875 -1.703125 C 0.46875 -0.578125 1.28125 0.078125 2.296875 0.078125 Z M 2.21875 -3.015625 C 2.796875 -3.015625 3.171875 -2.671875 3.21875 -1.984375 L 1.0625 -1.984375 C 1.171875 -2.640625 1.65625 -3.015625 2.21875 -3.015625 Z M 2.21875 -3.015625 "/>
</symbol>
<symbol overflow="visible" id="glyph3-7">
<path style="stroke:none;" d="M 0.421875 0.96875 L 3.765625 0.96875 L 3.765625 0.484375 L 0.421875 0.484375 Z M 0.421875 0.96875 "/>
</symbol>
<symbol overflow="visible" id="glyph3-8">
<path style="stroke:none;" d="M 2.203125 0 L 2.78125 0 L 2.78125 -3.390625 L 0.625 -3.390625 L 0.625 -2.921875 L 2.203125 -2.921875 Z M 2.421875 -4.09375 C 2.6875 -4.09375 2.890625 -4.265625 2.890625 -4.546875 C 2.890625 -4.8125 2.6875 -4.984375 2.421875 -4.984375 C 2.171875 -4.984375 1.96875 -4.8125 1.96875 -4.546875 C 1.96875 -4.265625 2.171875 -4.09375 2.421875 -4.09375 Z M 2.421875 -4.09375 "/>
</symbol>
<symbol overflow="visible" id="glyph3-9">
<path style="stroke:none;" d="M 1.78125 0 L 2.421875 0 L 3.828125 -3.390625 L 3.28125 -3.390625 L 2.5 -1.46875 C 2.359375 -1.125 2.25 -0.78125 2.125 -0.46875 L 2.09375 -0.46875 C 1.984375 -0.78125 1.859375 -1.125 1.71875 -1.46875 L 0.9375 -3.390625 L 0.359375 -3.390625 Z M 1.78125 0 "/>
</symbol>
<symbol overflow="visible" id="glyph3-10">
<path style="stroke:none;" d="M 2.234375 0.078125 C 3.03125 0.078125 3.765625 -0.59375 3.765625 -1.75 C 3.765625 -2.796875 3.265625 -3.46875 2.359375 -3.46875 C 1.953125 -3.46875 1.53125 -3.265625 1.21875 -2.953125 L 1.203125 -2.953125 L 1.21875 -3.609375 L 1.21875 -4.96875 L 0.640625 -4.96875 L 0.640625 0 L 1.109375 0 L 1.15625 -0.375 L 1.171875 -0.375 C 1.5 -0.09375 1.90625 0.078125 2.234375 0.078125 Z M 2.140625 -0.390625 C 1.890625 -0.390625 1.546875 -0.515625 1.21875 -0.796875 L 1.21875 -2.484375 C 1.5625 -2.828125 1.921875 -2.984375 2.21875 -2.984375 C 2.890625 -2.984375 3.171875 -2.484375 3.171875 -1.734375 C 3.171875 -0.90625 2.734375 -0.390625 2.140625 -0.390625 Z M 2.140625 -0.390625 "/>
</symbol>
<symbol overflow="visible" id="glyph3-11">
<path style="stroke:none;" d="M 0.90625 1.453125 C 1.671875 1.453125 2.09375 0.953125 2.34375 0.28125 L 3.84375 -3.390625 L 3.296875 -3.390625 L 2.5625 -1.515625 C 2.453125 -1.203125 2.3125 -0.84375 2.1875 -0.53125 L 2.171875 -0.53125 C 2.03125 -0.859375 1.875 -1.21875 1.75 -1.515625 L 0.921875 -3.390625 L 0.34375 -3.390625 L 1.921875 0 L 1.8125 0.265625 C 1.65625 0.671875 1.359375 0.984375 0.890625 0.984375 C 0.78125 0.984375 0.671875 0.96875 0.578125 0.9375 L 0.46875 1.390625 C 0.578125 1.421875 0.75 1.453125 0.90625 1.453125 Z M 0.90625 1.453125 "/>
</symbol>
<symbol overflow="visible" id="glyph3-12">
<path style="stroke:none;" d="M 0.5 0 L 3.703125 0 L 3.703125 -0.46875 L 1.3125 -0.46875 L 3.640625 -3.078125 L 3.640625 -3.390625 L 0.75 -3.390625 L 0.75 -2.921875 L 2.8125 -2.921875 L 0.5 -0.3125 Z M 0.5 0 "/>
</symbol>
<symbol overflow="visible" id="glyph3-13">
<path style="stroke:none;" d="M 1.015625 0 L 1.59375 0 L 1.59375 -1.984375 C 2 -2.6875 2.46875 -2.953125 2.984375 -2.953125 C 3.25 -2.953125 3.375 -2.921875 3.609375 -2.84375 L 3.75 -3.328125 C 3.53125 -3.4375 3.328125 -3.46875 3.078125 -3.46875 C 2.453125 -3.46875 1.921875 -3.125 1.5625 -2.578125 L 1.546875 -2.578125 L 1.484375 -3.390625 L 1.015625 -3.390625 Z M 1.015625 0 "/>
</symbol>
<symbol overflow="visible" id="glyph3-14">
<path style="stroke:none;" d="M 2.09375 0.078125 C 2.984375 0.078125 3.765625 -0.5625 3.765625 -1.6875 C 3.765625 -2.828125 2.984375 -3.46875 2.09375 -3.46875 C 1.203125 -3.46875 0.421875 -2.828125 0.421875 -1.6875 C 0.421875 -0.5625 1.203125 0.078125 2.09375 0.078125 Z M 2.09375 -0.390625 C 1.4375 -0.390625 1.015625 -0.90625 1.015625 -1.6875 C 1.015625 -2.46875 1.4375 -3 2.09375 -3 C 2.734375 -3 3.171875 -2.46875 3.171875 -1.6875 C 3.171875 -0.90625 2.734375 -0.390625 2.09375 -0.390625 Z M 2.09375 -0.390625 "/>
</symbol>
<symbol overflow="visible" id="glyph3-15">
<path style="stroke:none;" d="M 2.09375 -2.40625 C 2.40625 -2.40625 2.65625 -2.640625 2.65625 -3 C 2.65625 -3.359375 2.40625 -3.59375 2.09375 -3.59375 C 1.78125 -3.59375 1.53125 -3.359375 1.53125 -3 C 1.53125 -2.640625 1.78125 -2.40625 2.09375 -2.40625 Z M 2.09375 0.078125 C 2.40625 0.078125 2.65625 -0.15625 2.65625 -0.5 C 2.65625 -0.859375 2.40625 -1.09375 2.09375 -1.09375 C 1.78125 -1.09375 1.53125 -0.859375 1.53125 -0.5 C 1.53125 -0.15625 1.78125 0.078125 2.09375 0.078125 Z M 2.09375 0.078125 "/>
</symbol>
<symbol overflow="visible" id="glyph3-16">
<path style="stroke:none;" d="M 1.15625 -2.234375 C 1.71875 -2.234375 2.125 -2.671875 2.125 -3.390625 C 2.125 -4.125 1.71875 -4.53125 1.15625 -4.53125 C 0.59375 -4.53125 0.1875 -4.125 0.1875 -3.390625 C 0.1875 -2.671875 0.59375 -2.234375 1.15625 -2.234375 Z M 1.15625 -2.578125 C 0.859375 -2.578125 0.609375 -2.84375 0.609375 -3.390625 C 0.609375 -3.953125 0.859375 -4.1875 1.15625 -4.1875 C 1.453125 -4.1875 1.703125 -3.953125 1.703125 -3.390625 C 1.703125 -2.84375 1.453125 -2.578125 1.15625 -2.578125 Z M 0.53125 -0.21875 L 1.703125 -1.640625 L 1.46875 -1.84375 L 0.1875 -0.53125 Z M 2.703125 -2.71875 L 3.984375 -4.03125 L 3.640625 -4.34375 L 2.484375 -2.9375 Z M 3.03125 0.078125 C 3.59375 0.078125 4 -0.34375 4 -1.078125 C 4 -1.796875 3.59375 -2.203125 3.03125 -2.203125 C 2.453125 -2.203125 2.0625 -1.796875 2.0625 -1.078125 C 2.0625 -0.34375 2.453125 0.078125 3.03125 0.078125 Z M 3.03125 -0.265625 C 2.71875 -0.265625 2.484375 -0.53125 2.484375 -1.078125 C 2.484375 -1.625 2.71875 -1.875 3.03125 -1.875 C 3.328125 -1.875 3.5625 -1.625 3.5625 -1.078125 C 3.5625 -0.53125 3.328125 -0.265625 3.03125 -0.265625 Z M 3.03125 -0.265625 "/>
</symbol>
<symbol overflow="visible" id="glyph3-17">
<path style="stroke:none;" d="M 0.453125 0 L 1.0625 0 L 1.609375 -0.78125 C 1.75 -1 1.890625 -1.1875 2.03125 -1.390625 L 2.0625 -1.390625 C 2.203125 -1.203125 2.375 -0.96875 2.515625 -0.78125 L 3.09375 0 L 3.734375 0 L 2.4375 -1.703125 L 3.640625 -3.390625 L 3.03125 -3.390625 L 2.515625 -2.65625 C 2.40625 -2.46875 2.265625 -2.265625 2.140625 -2.0625 L 2.109375 -2.0625 C 1.96875 -2.265625 1.828125 -2.453125 1.71875 -2.640625 L 1.171875 -3.390625 L 0.546875 -3.390625 L 1.734375 -1.75 Z M 0.453125 0 "/>
</symbol>
<symbol overflow="visible" id="glyph3-18">
<path style="stroke:none;" d="M 1.53125 1.484375 C 2.296875 1.203125 2.765625 0.625 2.765625 -0.1875 C 2.765625 -0.734375 2.546875 -1.078125 2.125 -1.078125 C 1.828125 -1.078125 1.578125 -0.890625 1.578125 -0.546875 C 1.578125 -0.203125 1.8125 -0.03125 2.125 -0.03125 C 2.15625 -0.03125 2.203125 -0.03125 2.25 -0.046875 C 2.234375 0.515625 1.9375 0.859375 1.375 1.125 Z M 1.53125 1.484375 "/>
</symbol>
<symbol overflow="visible" id="glyph3-19">
<path style="stroke:none;" d="M 2.15625 0.078125 C 3.125 0.078125 3.671875 -0.375 3.671875 -0.921875 C 3.671875 -1.4375 3.390625 -1.734375 2.265625 -1.96875 C 1.578125 -2.125 1.28125 -2.25 1.28125 -2.53125 C 1.28125 -2.796875 1.484375 -3.03125 2.0625 -3.03125 C 2.5 -3.03125 2.890625 -2.890625 3.203125 -2.671875 L 3.484375 -3.03125 C 3.140625 -3.265625 2.625 -3.46875 2.109375 -3.46875 C 1.1875 -3.46875 0.703125 -3.046875 0.703125 -2.515625 C 0.703125 -2 1.15625 -1.703125 2.03125 -1.515625 C 2.953125 -1.328125 3.09375 -1.15625 3.09375 -0.890625 C 3.09375 -0.609375 2.796875 -0.359375 2.234375 -0.359375 C 1.609375 -0.359375 1.15625 -0.546875 0.765625 -0.828125 L 0.5 -0.453125 C 0.90625 -0.15625 1.5 0.078125 2.15625 0.078125 Z M 2.15625 0.078125 "/>
</symbol>
<symbol overflow="visible" id="glyph3-20">
<path style="stroke:none;" d="M 2.09375 0.078125 C 2.40625 0.078125 2.65625 -0.15625 2.65625 -0.5 C 2.65625 -0.859375 2.40625 -1.09375 2.09375 -1.09375 C 1.78125 -1.09375 1.53125 -0.859375 1.53125 -0.5 C 1.53125 -0.15625 1.78125 0.078125 2.09375 0.078125 Z M 2.09375 0.078125 "/>
</symbol>
<symbol overflow="visible" id="glyph3-21">
<path style="stroke:none;" d="M 2.75 0.078125 C 3.171875 0.078125 3.5 0 3.8125 -0.125 L 3.671875 -0.53125 C 3.4375 -0.453125 3.1875 -0.390625 2.859375 -0.390625 C 2.203125 -0.390625 2 -0.703125 2 -1.3125 L 2 -2.921875 L 3.671875 -2.921875 L 3.671875 -3.390625 L 2 -3.390625 L 2 -4.46875 L 1.53125 -4.46875 L 1.453125 -3.390625 L 0.484375 -3.359375 L 0.484375 -2.921875 L 1.4375 -2.921875 L 1.4375 -1.3125 C 1.4375 -0.484375 1.75 0.078125 2.75 0.078125 Z M 2.75 0.078125 "/>
</symbol>
<symbol overflow="visible" id="glyph3-22">
<path style="stroke:none;" d="M 0.40625 0 L 0.96875 0 L 0.96875 -2.453125 C 1.140625 -2.796875 1.296875 -2.96875 1.53125 -2.96875 C 1.78125 -2.96875 1.875 -2.78125 1.875 -2.390625 L 1.875 0 L 2.40625 0 L 2.40625 -2.453125 C 2.59375 -2.796875 2.71875 -2.96875 2.953125 -2.96875 C 3.203125 -2.96875 3.3125 -2.78125 3.3125 -2.390625 L 3.3125 0 L 3.890625 0 L 3.890625 -2.421875 C 3.890625 -3.09375 3.609375 -3.46875 3.140625 -3.46875 C 2.75 -3.46875 2.53125 -3.25 2.34375 -2.890625 C 2.25 -3.28125 2.03125 -3.46875 1.703125 -3.46875 C 1.3125 -3.46875 1.09375 -3.25 0.921875 -2.9375 L 0.90625 -2.9375 L 0.859375 -3.390625 L 0.40625 -3.390625 Z M 0.40625 0 "/>
</symbol>
<symbol overflow="visible" id="glyph3-23">
<path style="stroke:none;" d="M 2.40625 0.078125 C 2.90625 0.078125 3.375 -0.109375 3.75 -0.453125 L 3.5 -0.8125 C 3.21875 -0.578125 2.875 -0.390625 2.453125 -0.390625 C 1.671875 -0.390625 1.15625 -0.90625 1.15625 -1.6875 C 1.15625 -2.46875 1.6875 -3 2.46875 -3 C 2.828125 -3 3.109375 -2.84375 3.390625 -2.609375 L 3.671875 -2.96875 C 3.40625 -3.25 3 -3.46875 2.453125 -3.46875 C 1.421875 -3.46875 0.5625 -2.828125 0.5625 -1.6875 C 0.5625 -0.5625 1.359375 0.078125 2.40625 0.078125 Z M 2.40625 0.078125 "/>
</symbol>
<symbol overflow="visible" id="glyph3-24">
<path style="stroke:none;" d="M 0.734375 0 L 1.3125 0 L 1.3125 -0.921875 L 2.109375 -1.703125 L 3.359375 0 L 4 0 L 2.46875 -2.0625 L 3.8125 -3.390625 L 3.15625 -3.390625 L 1.34375 -1.609375 L 1.3125 -1.609375 L 1.3125 -4.96875 L 0.734375 -4.96875 Z M 0.734375 0 "/>
</symbol>
<symbol overflow="visible" id="glyph3-25">
<path style="stroke:none;" d="M 1.71875 0.078125 C 2.234375 0.078125 2.640625 -0.1875 2.96875 -0.59375 L 3 -0.59375 L 3.046875 0 L 3.515625 0 L 3.515625 -3.390625 L 2.953125 -3.390625 L 2.953125 -1.03125 C 2.578125 -0.59375 2.28125 -0.40625 1.890625 -0.40625 C 1.328125 -0.40625 1.109375 -0.71875 1.109375 -1.359375 L 1.109375 -3.390625 L 0.53125 -3.390625 L 0.53125 -1.28125 C 0.53125 -0.390625 0.90625 0.078125 1.71875 0.078125 Z M 1.71875 0.078125 "/>
</symbol>
<symbol overflow="visible" id="glyph3-26">
<path style="stroke:none;" d="M 0.640625 1.421875 L 1.21875 1.421875 L 1.21875 0.28125 L 1.1875 -0.359375 L 1.21875 -0.359375 C 1.515625 -0.078125 1.90625 0.078125 2.21875 0.078125 C 3.03125 0.078125 3.765625 -0.59375 3.765625 -1.734375 C 3.765625 -2.796875 3.28125 -3.46875 2.359375 -3.46875 C 1.9375 -3.46875 1.5 -3.25 1.1875 -2.953125 L 1.171875 -2.953125 L 1.125 -3.390625 L 0.640625 -3.390625 Z M 2.125 -0.390625 C 1.890625 -0.390625 1.546875 -0.515625 1.21875 -0.796875 L 1.21875 -2.484375 C 1.5625 -2.828125 1.921875 -2.984375 2.21875 -2.984375 C 2.890625 -2.984375 3.171875 -2.484375 3.171875 -1.734375 C 3.171875 -0.90625 2.734375 -0.390625 2.125 -0.390625 Z M 2.125 -0.390625 "/>
</symbol>
<symbol overflow="visible" id="glyph4-0">
<path style="stroke:none;" d="M 0.25 0 L 3.9375 0 L 3.9375 -4.59375 L 0.25 -4.59375 Z M 1.515625 -0.640625 L 1.796875 -1.171875 L 2.078125 -1.859375 L 2.109375 -1.859375 L 2.390625 -1.171875 L 2.65625 -0.640625 Z M 0.9375 -1.078125 L 0.9375 -3.671875 L 1.59375 -2.375 Z M 2.078125 -2.890625 L 1.78125 -3.546875 L 1.5625 -3.953125 L 2.625 -3.953125 L 2.390625 -3.546875 L 2.109375 -2.890625 Z M 2.59375 -2.375 L 3.25 -3.671875 L 3.25 -1.078125 Z M 2.59375 -2.375 "/>
</symbol>
<symbol overflow="visible" id="glyph4-1">
<path style="stroke:none;" d="M 0.25 0 L 1.21875 0 L 1.21875 -2.328125 C 1.3125 -2.5625 1.390625 -2.671875 1.53125 -2.671875 C 1.65625 -2.671875 1.71875 -2.5625 1.71875 -2.359375 L 1.71875 0 L 2.515625 0 L 2.515625 -2.328125 C 2.625 -2.5625 2.703125 -2.671875 2.84375 -2.671875 C 2.96875 -2.671875 3.03125 -2.5625 3.03125 -2.359375 L 3.03125 0 L 4 0 L 4 -2.421875 C 4 -3.109375 3.71875 -3.546875 3.21875 -3.546875 C 2.828125 -3.546875 2.578125 -3.296875 2.453125 -2.96875 C 2.375 -3.34375 2.15625 -3.546875 1.859375 -3.546875 C 1.46875 -3.546875 1.234375 -3.3125 1.109375 -3.03125 L 1.09375 -3.03125 L 1.015625 -3.453125 L 0.25 -3.453125 Z M 0.25 0 "/>
</symbol>
<symbol overflow="visible" id="glyph4-2">
<path style="stroke:none;" d="M 2.09375 0.078125 C 3 0.078125 3.859375 -0.578125 3.859375 -1.734375 C 3.859375 -2.875 3 -3.546875 2.09375 -3.546875 C 1.171875 -3.546875 0.328125 -2.875 0.328125 -1.734375 C 0.328125 -0.578125 1.171875 0.078125 2.09375 0.078125 Z M 2.09375 -0.75 C 1.609375 -0.75 1.375 -1.125 1.375 -1.734375 C 1.375 -2.328125 1.609375 -2.703125 2.09375 -2.703125 C 2.5625 -2.703125 2.796875 -2.328125 2.796875 -1.734375 C 2.796875 -1.125 2.5625 -0.75 2.09375 -0.75 Z M 2.09375 -0.75 "/>
</symbol>
<symbol overflow="visible" id="glyph4-3">
<path style="stroke:none;" d="M 1.515625 0 L 2.703125 0 L 3.96875 -3.453125 L 2.984375 -3.453125 L 2.4375 -1.828125 C 2.328125 -1.484375 2.234375 -1.125 2.125 -0.765625 L 2.109375 -0.765625 C 2 -1.125 1.90625 -1.484375 1.796875 -1.828125 L 1.25 -3.453125 L 0.21875 -3.453125 Z M 1.515625 0 "/>
</symbol>
<symbol overflow="visible" id="glyph4-4">
<path style="stroke:none;" d="M 2.65625 1.28125 L 3.671875 1.28125 L 3.671875 -3.453125 L 2.875 -3.453125 L 2.796875 -3.09375 L 2.765625 -3.09375 C 2.484375 -3.40625 2.1875 -3.546875 1.8125 -3.546875 C 1.046875 -3.546875 0.328125 -2.859375 0.328125 -1.734375 C 0.328125 -0.59375 0.90625 0.078125 1.78125 0.078125 C 2.109375 0.078125 2.453125 -0.078125 2.671875 -0.3125 L 2.703125 -0.3125 L 2.65625 0.25 Z M 2.046875 -0.75 C 1.625 -0.75 1.375 -1.0625 1.375 -1.734375 C 1.375 -2.390625 1.703125 -2.703125 2.078125 -2.703125 C 2.28125 -2.703125 2.46875 -2.640625 2.65625 -2.46875 L 2.65625 -1.078125 C 2.46875 -0.84375 2.28125 -0.75 2.046875 -0.75 Z M 2.046875 -0.75 "/>
</symbol>
</g>
<clipPath id="clip1">
  <path d="M 273 64 L 392.910156 64 L 392.910156 106 L 273 106 Z M 273 64 "/>
</clipPath>
</defs>
<g id="surface1">
<g style="fill:rgb(0%,0%,0%);fill-opacity:1;">
  <use xlink:href="#glyph0-1" x="58.417" y="63.145"/>
  <use xlink:href="#glyph0-2" x="62.846392" y="63.145"/>
  <use xlink:href="#glyph0-2" x="67.607539" y="63.145"/>
  <use xlink:href="#glyph0-3" x="72.368687" y="63.145"/>
  <use xlink:href="#glyph0-4" x="75.515887" y="63.145"/>
  <use xlink:href="#glyph0-5" x="79.613522" y="63.145"/>
  <use xlink:href="#glyph0-5" x="83.146276" y="63.145"/>
</g>
<g style="fill:rgb(0%,0%,0%);fill-opacity:1;">
  <use xlink:href="#glyph0-6" x="116.861" y="62.168"/>
</g>
<g style="fill:rgb(0%,0%,0%);fill-opacity:1;">
  <use xlink:href="#glyph0-7" x="121.873206" y="62.168"/>
  <use xlink:href="#glyph0-8" x="126.481926" y="62.168"/>
  <use xlink:href="#glyph0-9" x="128.678689" y="62.168"/>
  <use xlink:href="#glyph0-10" x="133.439837" y="62.168"/>
  <use xlink:href="#glyph0-4" x="136.766364" y="62.168"/>
  <use xlink:href="#glyph0-3" x="140.863999" y="62.168"/>
</g>
<g style="fill:rgb(0%,0%,0%);fill-opacity:1;">
  <use xlink:href="#glyph0-11" x="30.028" y="73.921"/>
  <use xlink:href="#glyph0-1" x="34.789148" y="73.921"/>
  <use xlink:href="#glyph0-5" x="39.21854" y="73.921"/>
  <use xlink:href="#glyph0-4" x="42.751293" y="73.921"/>
</g>
<g style="fill:rgb(0%,0%,0%);fill-opacity:1;">
  <use xlink:href="#glyph0-12" x="49.834733" y="73.921"/>
</g>
<g style="fill:rgb(0%,0%,0%);fill-opacity:1;">
  <use xlink:href="#glyph1-1" x="59.99" y="73.921"/>
  <use xlink:href="#glyph1-2" x="64.69735" y="73.921"/>
  <use xlink:href="#glyph1-1" x="69.404699" y="73.921"/>
  <use xlink:href="#glyph1-1" x="74.112049" y="73.921"/>
  <use xlink:href="#glyph1-1" x="78.819398" y="73.921"/>
</g>
<path style="fill:none;stroke-width:0.3985;stroke-linecap:butt;stroke-linejoin:miter;stroke:rgb(0%,0%,0%);stroke-opacity:1;stroke-miterlimit:10;" d="M -22.256719 -5.667625 L 22.255 -5.667625 L 22.255 5.668312 L -22.256719 5.668312 Z M -22.256719 -5.667625 " transform="matrix(1,0,0,-1,138.12,71.223)"/>
<g style="fill:rgb(0%,0%,0%);fill-opacity:1;">
  <use xlink:href="#glyph0-11" x="30.028" y="85.26"/>
  <use xlink:href="#glyph0-1" x="34.789148" y="85.26"/>
  <use xlink:href="#glyph0-5" x="39.21854" y="85.26"/>
  <use xlink:href="#glyph0-4" x="42.751293" y="85.26"/>
</g>
<g style="fill:rgb(0%,0%,0%);fill-opacity:1;">
  <use xlink:href="#glyph0-12" x="49.834733" y="85.26"/>
</g>
<g style="fill:rgb(0%,0%,0%);fill-opacity:1;">
  <use xlink:href="#glyph1-1" x="59.99" y="85.26"/>
  <use xlink:href="#glyph1-2" x="64.69735" y="85.26"/>
  <use xlink:href="#glyph1-1" x="69.404699" y="85.26"/>
  <use xlink:href="#glyph1-1" x="74.112049" y="85.26"/>
  <use xlink:href="#glyph1-3" x="78.819398" y="85.26"/>
</g>
<path style="fill:none;stroke-width:0.3985;stroke-linecap:butt;stroke-linejoin:miter;stroke:rgb(0%,0%,0%);stroke-opacity:1;stroke-miterlimit:10;" d="M -22.256719 -5.669469 L 22.255 -5.669469 L 22.255 5.670375 L -22.256719 5.670375 Z M -22.256719 -5.669469 " transform="matrix(1,0,0,-1,138.12,82.561)"/>
<g style="fill:rgb(0%,0%,0%);fill-opacity:1;">
  <use xlink:href="#glyph0-11" x="30.028" y="96.598"/>
  <use xlink:href="#glyph0-1" x="34.789148" y="96.598"/>
  <use xlink:href="#glyph0-5" x="39.21854" y="96.598"/>
  <use xlink:href="#glyph0-4" x="42.751293" y="96.598"/>
</g>
<g style="fill:rgb(0%,0%,0%);fill-opacity:1;">
  <use xlink:href="#glyph0-12" x="49.834733" y="96.598"/>
</g>
<g style="fill:rgb(0%,0%,0%);fill-opacity:1;">
  <use xlink:href="#glyph1-1" x="59.99" y="96.598"/>
  <use xlink:href="#glyph1-2" x="64.69735" y="96.598"/>
  <use xlink:href="#glyph1-1" x="69.404699" y="96.598"/>
  <use xlink:href="#glyph1-4" x="74.112049" y="96.598"/>
  <use xlink:href="#glyph1-1" x="78.819398" y="96.598"/>
</g>
<path style="fill:none;stroke-width:0.3985;stroke-linecap:butt;stroke-linejoin:miter;stroke:rgb(0%,0%,0%);stroke-opacity:1;stroke-miterlimit:10;" d="M -22.256719 -5.667406 L 22.255 -5.667406 L 22.255 5.668531 L -22.256719 5.668531 Z M -22.256719 -5.667406 " transform="matrix(1,0,0,-1,138.12,93.899)"/>
<g style="fill:rgb(0%,0%,0%);fill-opacity:1;">
  <use xlink:href="#glyph0-11" x="30.028" y="107.937"/>
  <use xlink:href="#glyph0-1" x="34.789148" y="107.937"/>
  <use xlink:href="#glyph0-5" x="39.21854" y="107.937"/>
  <use xlink:href="#glyph0-4" x="42.751293" y="107.937"/>
</g>
<g style="fill:rgb(0%,0%,0%);fill-opacity:1;">
  <use xlink:href="#glyph0-12" x="49.834733" y="107.937"/>
</g>
<g style="fill:rgb(0%,0%,0%);fill-opacity:1;">
  <use xlink:href="#glyph1-1" x="59.99" y="107.937"/>
  <use xlink:href="#glyph1-2" x="64.69735" y="107.937"/>
  <use xlink:href="#glyph1-1" x="69.404699" y="107.937"/>
  <use xlink:href="#glyph1-4" x="74.112049" y="107.937"/>
  <use xlink:href="#glyph1-3" x="78.819398" y="107.937"/>
</g>
<path style="fill:none;stroke-width:0.3985;stroke-linecap:butt;stroke-linejoin:miter;stroke:rgb(0%,0%,0%);stroke-opacity:1;stroke-miterlimit:10;" d="M -22.256719 -5.66825 L 22.255 -5.66825 L 22.255 5.667687 L -22.256719 5.667687 Z M -22.256719 -5.66825 " transform="matrix(1,0,0,-1,138.12,105.238)"/>
<g style="fill:rgb(0%,0%,0%);fill-opacity:1;">
  <use xlink:href="#glyph0-13" x="69.669" y="116.762"/>
</g>
<g style="fill:rgb(0%,0%,0%);fill-opacity:1;">
  <use xlink:href="#glyph0-13" x="135.242" y="116.762"/>
</g>
<g style="fill:rgb(0%,0%,0%);fill-opacity:1;">
  <use xlink:href="#glyph0-11" x="30.028" y="130.215"/>
  <use xlink:href="#glyph0-1" x="34.789148" y="130.215"/>
  <use xlink:href="#glyph0-5" x="39.21854" y="130.215"/>
  <use xlink:href="#glyph0-4" x="42.751293" y="130.215"/>
</g>
<g style="fill:rgb(0%,0%,0%);fill-opacity:1;">
  <use xlink:href="#glyph0-12" x="49.834733" y="130.215"/>
</g>
<g style="fill:rgb(0%,0%,0%);fill-opacity:1;">
  <use xlink:href="#glyph1-1" x="59.99" y="130.215"/>
  <use xlink:href="#glyph1-2" x="64.69735" y="130.215"/>
  <use xlink:href="#glyph1-4" x="69.404699" y="130.215"/>
  <use xlink:href="#glyph1-1" x="74.112049" y="130.215"/>
  <use xlink:href="#glyph1-3" x="78.819398" y="130.215"/>
</g>
<path style="fill:none;stroke-width:0.3985;stroke-linecap:butt;stroke-linejoin:miter;stroke:rgb(0%,0%,0%);stroke-opacity:1;stroke-miterlimit:10;" d="M -22.256719 -5.667594 L 22.255 -5.667594 L 22.255 5.668344 L -22.256719 5.668344 Z M -22.256719 -5.667594 " transform="matrix(1,0,0,-1,138.12,127.516)"/>
<g style="fill:rgb(0%,0%,0%);fill-opacity:1;">
  <use xlink:href="#glyph0-13" x="69.669" y="139.041"/>
</g>
<g style="fill:rgb(0%,0%,0%);fill-opacity:1;">
  <use xlink:href="#glyph0-13" x="135.242" y="139.041"/>
</g>
<g style="fill:rgb(0%,0%,0%);fill-opacity:1;">
  <use xlink:href="#glyph0-11" x="30.028" y="152.493"/>
  <use xlink:href="#glyph0-1" x="34.789148" y="152.493"/>
  <use xlink:href="#glyph0-5" x="39.21854" y="152.493"/>
  <use xlink:href="#glyph0-4" x="42.751293" y="152.493"/>
</g>
<g style="fill:rgb(0%,0%,0%);fill-opacity:1;">
  <use xlink:href="#glyph0-12" x="49.834733" y="152.493"/>
</g>
<g style="fill:rgb(0%,0%,0%);fill-opacity:1;">
  <use xlink:href="#glyph1-1" x="59.99" y="152.493"/>
  <use xlink:href="#glyph1-2" x="64.69735" y="152.493"/>
  <use xlink:href="#glyph1-5" x="69.404699" y="152.493"/>
  <use xlink:href="#glyph1-1" x="74.112049" y="152.493"/>
  <use xlink:href="#glyph1-1" x="78.819398" y="152.493"/>
</g>
<path style="fill:none;stroke-width:0.3985;stroke-linecap:butt;stroke-linejoin:miter;stroke:rgb(0%,0%,0%);stroke-opacity:1;stroke-miterlimit:10;" d="M -22.256719 -5.670844 L 22.255 -5.670844 L 22.255 5.669 L -22.256719 5.669 Z M -22.256719 -5.670844 " transform="matrix(1,0,0,-1,138.12,149.794)"/>
<g style="fill:rgb(0%,0%,0%);fill-opacity:1;">
  <use xlink:href="#glyph0-13" x="69.669" y="161.319"/>
</g>
<g style="fill:rgb(0%,0%,0%);fill-opacity:1;">
  <use xlink:href="#glyph0-13" x="135.242" y="161.319"/>
</g>
<g style="fill:rgb(0%,0%,0%);fill-opacity:1;">
  <use xlink:href="#glyph2-1" x="38.19" y="50.986"/>
  <use xlink:href="#glyph2-2" x="42.77182" y="50.986"/>
  <use xlink:href="#glyph2-3" x="47.25501" y="50.986"/>
  <use xlink:href="#glyph2-1" x="51.63957" y="50.986"/>
  <use xlink:href="#glyph2-4" x="56.22139" y="50.986"/>
  <use xlink:href="#glyph2-5" x="61.251529" y="50.986"/>
  <use xlink:href="#glyph2-6" x="64.873947" y="50.986"/>
  <use xlink:href="#glyph2-7" x="67.16934" y="50.986"/>
  <use xlink:href="#glyph2-8" x="72.100849" y="50.986"/>
</g>
<g style="fill:rgb(0%,0%,0%);fill-opacity:1;">
  <use xlink:href="#glyph2-5" x="80.42165" y="50.986"/>
  <use xlink:href="#glyph2-9" x="84.044067" y="50.986"/>
  <use xlink:href="#glyph2-10" x="88.751417" y="50.986"/>
  <use xlink:href="#glyph2-11" x="93.781556" y="50.986"/>
  <use xlink:href="#glyph2-1" x="96.076949" y="50.986"/>
</g>
<g style="fill:rgb(0%,0%,0%);fill-opacity:1;">
  <use xlink:href="#glyph0-14" x="103.734" y="50.986"/>
  <use xlink:href="#glyph0-8" x="107.320552" y="50.986"/>
  <use xlink:href="#glyph0-9" x="109.517315" y="50.986"/>
</g>
<g style="fill:rgb(0%,0%,0%);fill-opacity:1;">
  <use xlink:href="#glyph0-15" x="117.353931" y="50.986"/>
  <use xlink:href="#glyph0-4" x="124.670497" y="50.986"/>
  <use xlink:href="#glyph0-15" x="128.768133" y="50.986"/>
  <use xlink:href="#glyph0-7" x="136.084699" y="50.986"/>
</g>
<g style="fill:rgb(0%,0%,0%);fill-opacity:1;">
  <use xlink:href="#glyph0-3" x="140.433393" y="50.986"/>
  <use xlink:href="#glyph0-16" x="143.580593" y="50.986"/>
  <use xlink:href="#glyph0-17" x="147.830657" y="50.986"/>
</g>
<path style="fill:none;stroke-width:0.3985;stroke-linecap:butt;stroke-linejoin:miter;stroke:rgb(0%,0%,0%);stroke-opacity:1;stroke-miterlimit:10;" d="M -94.604781 84.640812 L -8.593063 84.640812 L -8.593063 110.312687 L -94.604781 110.312687 Z M -94.604781 84.640812 " transform="matrix(1,0,0,-1,94.804,110.508)"/>
<g style="fill:rgb(0%,0%,0%);fill-opacity:1;">
  <use xlink:href="#glyph0-4" x="14.206" y="9.742"/>
  <use xlink:href="#glyph0-18" x="18.303636" y="9.742"/>
  <use xlink:href="#glyph0-19" x="22.5537" y="9.742"/>
  <use xlink:href="#glyph0-4" x="26.651335" y="9.742"/>
  <use xlink:href="#glyph0-6" x="30.748971" y="9.742"/>
  <use xlink:href="#glyph0-10" x="35.510119" y="9.742"/>
  <use xlink:href="#glyph0-8" x="38.836646" y="9.742"/>
  <use xlink:href="#glyph0-7" x="41.033409" y="9.742"/>
  <use xlink:href="#glyph0-9" x="45.642128" y="9.742"/>
</g>
<g style="fill:rgb(0%,0%,0%);fill-opacity:1;">
  <use xlink:href="#glyph0-10" x="53.389081" y="9.742"/>
  <use xlink:href="#glyph0-1" x="56.715608" y="9.742"/>
  <use xlink:href="#glyph0-11" x="61.144999" y="9.742"/>
  <use xlink:href="#glyph0-20" x="65.906147" y="9.742"/>
  <use xlink:href="#glyph0-4" x="68.10291" y="9.742"/>
</g>
<g style="fill:rgb(0%,0%,0%);fill-opacity:1;">
  <use xlink:href="#glyph0-11" x="19.223" y="20.701"/>
  <use xlink:href="#glyph0-1" x="23.984148" y="20.701"/>
  <use xlink:href="#glyph0-5" x="28.413539" y="20.701"/>
  <use xlink:href="#glyph0-4" x="31.946293" y="20.701"/>
</g>
<g style="fill:rgb(0%,0%,0%);fill-opacity:1;">
  <use xlink:href="#glyph0-3" x="39.029733" y="20.701"/>
  <use xlink:href="#glyph0-4" x="42.176933" y="20.701"/>
  <use xlink:href="#glyph0-21" x="46.274568" y="20.701"/>
  <use xlink:href="#glyph0-8" x="50.883288" y="20.701"/>
  <use xlink:href="#glyph0-5" x="53.080051" y="20.701"/>
  <use xlink:href="#glyph0-10" x="56.612805" y="20.701"/>
  <use xlink:href="#glyph0-4" x="59.939332" y="20.701"/>
  <use xlink:href="#glyph0-3" x="64.036967" y="20.701"/>
</g>
<path style="fill:none;stroke-width:1.19553;stroke-linecap:butt;stroke-linejoin:miter;stroke:rgb(0%,0%,0%);stroke-opacity:1;stroke-dasharray:2.98883,2.98883;stroke-miterlimit:10;" d="M -85.6165 84.441594 L -85.6165 39.285344 L -73.542281 39.285344 " transform="matrix(1,0,0,-1,94.804,110.508)"/>
<path style="fill-rule:nonzero;fill:rgb(0%,0%,0%);fill-opacity:1;stroke-width:1.19553;stroke-linecap:butt;stroke-linejoin:miter;stroke:rgb(0%,0%,0%);stroke-opacity:1;stroke-miterlimit:10;" d="M 5.306226 -0.00105625 C 4.653883 0.163006 1.790601 1.088787 0.00153875 2.0966 L 0.00153875 -2.098713 C 1.790601 -1.0909 4.653883 -0.165119 5.306226 -0.00105625 Z M 5.306226 -0.00105625 " transform="matrix(1,0,0,-1,21.26018,71.2216)"/>
<path style="fill:none;stroke-width:0.3985;stroke-linecap:butt;stroke-linejoin:miter;stroke:rgb(0%,0%,0%);stroke-opacity:1;stroke-miterlimit:10;" d="M 122.465531 60.535344 L 224.481156 60.535344 L 224.481156 101.449406 L 122.465531 101.449406 Z M 122.465531 60.535344 " transform="matrix(1,0,0,-1,94.804,110.508)"/>
<g style="fill:rgb(0%,0%,0%);fill-opacity:1;">
  <use xlink:href="#glyph3-1" x="223.907" y="20.35"/>
  <use xlink:href="#glyph3-2" x="228.09131" y="20.35"/>
  <use xlink:href="#glyph3-3" x="232.27562" y="20.35"/>
  <use xlink:href="#glyph3-4" x="236.45993" y="20.35"/>
  <use xlink:href="#glyph3-5" x="240.64424" y="20.35"/>
  <use xlink:href="#glyph3-6" x="244.82855" y="20.35"/>
  <use xlink:href="#glyph3-7" x="249.01286" y="20.35"/>
  <use xlink:href="#glyph3-4" x="253.19717" y="20.35"/>
  <use xlink:href="#glyph3-8" x="257.38148" y="20.35"/>
  <use xlink:href="#glyph3-9" x="261.56579" y="20.35"/>
  <use xlink:href="#glyph3-8" x="265.7501" y="20.35"/>
  <use xlink:href="#glyph3-4" x="269.93441" y="20.35"/>
  <use xlink:href="#glyph3-6" x="274.11872" y="20.35"/>
  <use xlink:href="#glyph3-7" x="278.30303" y="20.35"/>
  <use xlink:href="#glyph3-10" x="282.48734" y="20.35"/>
  <use xlink:href="#glyph3-11" x="286.67165" y="20.35"/>
  <use xlink:href="#glyph3-7" x="290.85596" y="20.35"/>
  <use xlink:href="#glyph3-12" x="295.04027" y="20.35"/>
  <use xlink:href="#glyph3-6" x="299.22458" y="20.35"/>
  <use xlink:href="#glyph3-13" x="303.40889" y="20.35"/>
  <use xlink:href="#glyph3-14" x="307.5932" y="20.35"/>
  <use xlink:href="#glyph3-15" x="311.77751" y="20.35"/>
</g>
<g style="fill:rgb(0%,0%,0%);fill-opacity:1;">
  <use xlink:href="#glyph4-1" x="232.275" y="28.32"/>
  <use xlink:href="#glyph4-2" x="236.45931" y="28.32"/>
  <use xlink:href="#glyph4-3" x="240.64362" y="28.32"/>
  <use xlink:href="#glyph4-4" x="244.82793" y="28.32"/>
</g>
<g style="fill:rgb(25%,0%,25%);fill-opacity:1;">
  <use xlink:href="#glyph3-16" x="253.197" y="28.32"/>
  <use xlink:href="#glyph3-13" x="257.38131" y="28.32"/>
  <use xlink:href="#glyph3-2" x="261.56562" y="28.32"/>
  <use xlink:href="#glyph3-17" x="265.74993" y="28.32"/>
</g>
<g style="fill:rgb(0%,0%,0%);fill-opacity:1;">
  <use xlink:href="#glyph3-18" x="269.935" y="28.32"/>
</g>
<g style="fill:rgb(0%,0%,0%);fill-opacity:1;">
  <use xlink:href="#glyph3-19" x="278.30362" y="28.32"/>
  <use xlink:href="#glyph3-2" x="282.48793" y="28.32"/>
  <use xlink:href="#glyph3-9" x="286.67224" y="28.32"/>
  <use xlink:href="#glyph3-6" x="290.85655" y="28.32"/>
  <use xlink:href="#glyph3-7" x="295.04086" y="28.32"/>
  <use xlink:href="#glyph3-13" x="299.22517" y="28.32"/>
  <use xlink:href="#glyph3-2" x="303.40948" y="28.32"/>
  <use xlink:href="#glyph3-17" x="307.59379" y="28.32"/>
</g>
<g style="fill:rgb(0%,0%,0%);fill-opacity:1;">
  <use xlink:href="#glyph4-1" x="232.275" y="36.291"/>
  <use xlink:href="#glyph4-2" x="236.45931" y="36.291"/>
  <use xlink:href="#glyph4-3" x="240.64362" y="36.291"/>
  <use xlink:href="#glyph4-4" x="244.82793" y="36.291"/>
</g>
<g style="fill:rgb(25%,0%,25%);fill-opacity:1;">
  <use xlink:href="#glyph3-16" x="253.197" y="36.291"/>
  <use xlink:href="#glyph3-13" x="257.38131" y="36.291"/>
  <use xlink:href="#glyph3-10" x="261.56562" y="36.291"/>
  <use xlink:href="#glyph3-17" x="265.74993" y="36.291"/>
</g>
<g style="fill:rgb(0%,0%,0%);fill-opacity:1;">
  <use xlink:href="#glyph3-18" x="269.935" y="36.291"/>
</g>
<g style="fill:rgb(0%,0%,0%);fill-opacity:1;">
  <use xlink:href="#glyph3-19" x="278.30362" y="36.291"/>
  <use xlink:href="#glyph3-2" x="282.48793" y="36.291"/>
  <use xlink:href="#glyph3-9" x="286.67224" y="36.291"/>
  <use xlink:href="#glyph3-6" x="290.85655" y="36.291"/>
  <use xlink:href="#glyph3-7" x="295.04086" y="36.291"/>
  <use xlink:href="#glyph3-13" x="299.22517" y="36.291"/>
  <use xlink:href="#glyph3-10" x="303.40948" y="36.291"/>
  <use xlink:href="#glyph3-17" x="307.59379" y="36.291"/>
</g>
<g style="fill:rgb(0%,0%,0%);fill-opacity:1;">
  <use xlink:href="#glyph3-20" x="232.275" y="44.261"/>
  <use xlink:href="#glyph3-20" x="236.45931" y="44.261"/>
  <use xlink:href="#glyph3-20" x="240.64362" y="44.261"/>
</g>
<path style="fill:none;stroke-width:0.3985;stroke-linecap:butt;stroke-linejoin:miter;stroke:rgb(0%,0%,0%);stroke-opacity:1;stroke-miterlimit:10;" d="M 122.465531 -51.640438 L 220.297562 -51.640438 L 220.297562 -10.730281 L 122.465531 -10.730281 Z M 122.465531 -51.640438 " transform="matrix(1,0,0,-1,94.804,110.508)"/>
<g style="fill:rgb(0%,0%,0%);fill-opacity:1;">
  <use xlink:href="#glyph3-1" x="223.907" y="132.528"/>
  <use xlink:href="#glyph3-2" x="228.09131" y="132.528"/>
  <use xlink:href="#glyph3-3" x="232.27562" y="132.528"/>
  <use xlink:href="#glyph3-4" x="236.45993" y="132.528"/>
  <use xlink:href="#glyph3-5" x="240.64424" y="132.528"/>
  <use xlink:href="#glyph3-6" x="244.82855" y="132.528"/>
  <use xlink:href="#glyph3-7" x="249.01286" y="132.528"/>
  <use xlink:href="#glyph3-19" x="253.19717" y="132.528"/>
  <use xlink:href="#glyph3-11" x="257.38148" y="132.528"/>
  <use xlink:href="#glyph3-19" x="261.56579" y="132.528"/>
  <use xlink:href="#glyph3-21" x="265.7501" y="132.528"/>
  <use xlink:href="#glyph3-6" x="269.93441" y="132.528"/>
  <use xlink:href="#glyph3-22" x="274.11872" y="132.528"/>
  <use xlink:href="#glyph3-7" x="278.30303" y="132.528"/>
  <use xlink:href="#glyph3-23" x="282.48734" y="132.528"/>
  <use xlink:href="#glyph3-2" x="286.67165" y="132.528"/>
  <use xlink:href="#glyph3-5" x="290.85596" y="132.528"/>
  <use xlink:href="#glyph3-5" x="295.04027" y="132.528"/>
  <use xlink:href="#glyph3-15" x="299.22458" y="132.528"/>
</g>
<g style="fill:rgb(0%,0%,0%);fill-opacity:1;">
  <use xlink:href="#glyph4-1" x="232.275" y="140.498"/>
  <use xlink:href="#glyph4-2" x="236.45931" y="140.498"/>
  <use xlink:href="#glyph4-3" x="240.64362" y="140.498"/>
  <use xlink:href="#glyph4-4" x="244.82793" y="140.498"/>
</g>
<g style="fill:rgb(25%,0%,25%);fill-opacity:1;">
  <use xlink:href="#glyph3-16" x="253.197" y="140.498"/>
  <use xlink:href="#glyph3-13" x="257.38131" y="140.498"/>
  <use xlink:href="#glyph3-2" x="261.56562" y="140.498"/>
  <use xlink:href="#glyph3-17" x="265.74993" y="140.498"/>
</g>
<g style="fill:rgb(0%,0%,0%);fill-opacity:1;">
  <use xlink:href="#glyph3-18" x="269.935" y="140.498"/>
</g>
<g style="fill:rgb(0%,0%,0%);fill-opacity:1;">
  <use xlink:href="#glyph3-19" x="278.30362" y="140.498"/>
  <use xlink:href="#glyph3-2" x="282.48793" y="140.498"/>
  <use xlink:href="#glyph3-9" x="286.67224" y="140.498"/>
  <use xlink:href="#glyph3-6" x="290.85655" y="140.498"/>
  <use xlink:href="#glyph3-7" x="295.04086" y="140.498"/>
  <use xlink:href="#glyph3-13" x="299.22517" y="140.498"/>
  <use xlink:href="#glyph3-2" x="303.40948" y="140.498"/>
  <use xlink:href="#glyph3-17" x="307.59379" y="140.498"/>
</g>
<g style="fill:rgb(0%,0%,0%);fill-opacity:1;">
  <use xlink:href="#glyph4-1" x="232.275" y="148.468"/>
  <use xlink:href="#glyph4-2" x="236.45931" y="148.468"/>
  <use xlink:href="#glyph4-3" x="240.64362" y="148.468"/>
  <use xlink:href="#glyph4-4" x="244.82793" y="148.468"/>
</g>
<g style="fill:rgb(25%,0%,25%);fill-opacity:1;">
  <use xlink:href="#glyph3-16" x="253.197" y="148.468"/>
  <use xlink:href="#glyph3-13" x="257.38131" y="148.468"/>
  <use xlink:href="#glyph3-10" x="261.56562" y="148.468"/>
  <use xlink:href="#glyph3-17" x="265.74993" y="148.468"/>
</g>
<g style="fill:rgb(0%,0%,0%);fill-opacity:1;">
  <use xlink:href="#glyph3-18" x="269.935" y="148.468"/>
</g>
<g style="fill:rgb(0%,0%,0%);fill-opacity:1;">
  <use xlink:href="#glyph3-19" x="278.30362" y="148.468"/>
  <use xlink:href="#glyph3-2" x="282.48793" y="148.468"/>
  <use xlink:href="#glyph3-9" x="286.67224" y="148.468"/>
  <use xlink:href="#glyph3-6" x="290.85655" y="148.468"/>
  <use xlink:href="#glyph3-7" x="295.04086" y="148.468"/>
  <use xlink:href="#glyph3-13" x="299.22517" y="148.468"/>
  <use xlink:href="#glyph3-10" x="303.40948" y="148.468"/>
  <use xlink:href="#glyph3-17" x="307.59379" y="148.468"/>
</g>
<g style="fill:rgb(0%,0%,0%);fill-opacity:1;">
  <use xlink:href="#glyph3-20" x="232.275" y="156.438"/>
  <use xlink:href="#glyph3-20" x="236.45931" y="156.438"/>
  <use xlink:href="#glyph3-20" x="240.64362" y="156.438"/>
</g>
<g clip-path="url(#clip1)" clip-rule="nonzero">
<path style="fill:none;stroke-width:0.3985;stroke-linecap:butt;stroke-linejoin:miter;stroke:rgb(0%,0%,0%);stroke-opacity:1;stroke-miterlimit:10;" d="M 179.160844 5.050969 L 297.91475 5.050969 L 297.91475 45.965031 L 179.160844 45.965031 Z M 179.160844 5.050969 " transform="matrix(1,0,0,-1,94.804,110.508)"/>
</g>
<g style="fill:rgb(0%,0%,0%);fill-opacity:1;">
  <use xlink:href="#glyph3-1" x="280.6" y="75.835"/>
  <use xlink:href="#glyph3-2" x="284.78431" y="75.835"/>
  <use xlink:href="#glyph3-3" x="288.96862" y="75.835"/>
  <use xlink:href="#glyph3-4" x="293.15293" y="75.835"/>
  <use xlink:href="#glyph3-5" x="297.33724" y="75.835"/>
  <use xlink:href="#glyph3-6" x="301.52155" y="75.835"/>
  <use xlink:href="#glyph3-7" x="305.70586" y="75.835"/>
  <use xlink:href="#glyph3-24" x="309.89017" y="75.835"/>
  <use xlink:href="#glyph3-6" x="314.07448" y="75.835"/>
  <use xlink:href="#glyph3-11" x="318.25879" y="75.835"/>
  <use xlink:href="#glyph3-10" x="322.4431" y="75.835"/>
  <use xlink:href="#glyph3-14" x="326.62741" y="75.835"/>
  <use xlink:href="#glyph3-2" x="330.81172" y="75.835"/>
  <use xlink:href="#glyph3-13" x="334.99603" y="75.835"/>
  <use xlink:href="#glyph3-4" x="339.18034" y="75.835"/>
  <use xlink:href="#glyph3-7" x="343.36465" y="75.835"/>
  <use xlink:href="#glyph3-8" x="347.54896" y="75.835"/>
  <use xlink:href="#glyph3-3" x="351.73327" y="75.835"/>
  <use xlink:href="#glyph3-21" x="355.91758" y="75.835"/>
  <use xlink:href="#glyph3-6" x="360.10189" y="75.835"/>
  <use xlink:href="#glyph3-13" x="364.2862" y="75.835"/>
  <use xlink:href="#glyph3-13" x="368.47051" y="75.835"/>
  <use xlink:href="#glyph3-25" x="372.65482" y="75.835"/>
  <use xlink:href="#glyph3-26" x="376.83913" y="75.835"/>
  <use xlink:href="#glyph3-21" x="381.02344" y="75.835"/>
  <use xlink:href="#glyph3-15" x="385.20775" y="75.835"/>
</g>
<g style="fill:rgb(0%,0%,0%);fill-opacity:1;">
  <use xlink:href="#glyph4-1" x="288.968" y="83.805"/>
  <use xlink:href="#glyph4-2" x="293.15231" y="83.805"/>
  <use xlink:href="#glyph4-3" x="297.33662" y="83.805"/>
  <use xlink:href="#glyph4-4" x="301.52093" y="83.805"/>
</g>
<g style="fill:rgb(25%,0%,25%);fill-opacity:1;">
  <use xlink:href="#glyph3-16" x="309.89" y="83.805"/>
  <use xlink:href="#glyph3-13" x="314.07431" y="83.805"/>
  <use xlink:href="#glyph3-2" x="318.25862" y="83.805"/>
  <use xlink:href="#glyph3-17" x="322.44293" y="83.805"/>
</g>
<g style="fill:rgb(0%,0%,0%);fill-opacity:1;">
  <use xlink:href="#glyph3-18" x="326.627" y="83.805"/>
</g>
<g style="fill:rgb(0%,0%,0%);fill-opacity:1;">
  <use xlink:href="#glyph3-19" x="334.99562" y="83.805"/>
  <use xlink:href="#glyph3-2" x="339.17993" y="83.805"/>
  <use xlink:href="#glyph3-9" x="343.36424" y="83.805"/>
  <use xlink:href="#glyph3-6" x="347.54855" y="83.805"/>
  <use xlink:href="#glyph3-7" x="351.73286" y="83.805"/>
  <use xlink:href="#glyph3-13" x="355.91717" y="83.805"/>
  <use xlink:href="#glyph3-2" x="360.10148" y="83.805"/>
  <use xlink:href="#glyph3-17" x="364.28579" y="83.805"/>
</g>
<g style="fill:rgb(0%,0%,0%);fill-opacity:1;">
  <use xlink:href="#glyph4-1" x="288.968" y="91.775"/>
  <use xlink:href="#glyph4-2" x="293.15231" y="91.775"/>
  <use xlink:href="#glyph4-3" x="297.33662" y="91.775"/>
  <use xlink:href="#glyph4-4" x="301.52093" y="91.775"/>
</g>
<g style="fill:rgb(25%,0%,25%);fill-opacity:1;">
  <use xlink:href="#glyph3-16" x="309.89" y="91.775"/>
  <use xlink:href="#glyph3-13" x="314.07431" y="91.775"/>
  <use xlink:href="#glyph3-10" x="318.25862" y="91.775"/>
  <use xlink:href="#glyph3-17" x="322.44293" y="91.775"/>
</g>
<g style="fill:rgb(0%,0%,0%);fill-opacity:1;">
  <use xlink:href="#glyph3-18" x="326.627" y="91.775"/>
</g>
<g style="fill:rgb(0%,0%,0%);fill-opacity:1;">
  <use xlink:href="#glyph3-19" x="334.99562" y="91.775"/>
  <use xlink:href="#glyph3-2" x="339.17993" y="91.775"/>
  <use xlink:href="#glyph3-9" x="343.36424" y="91.775"/>
  <use xlink:href="#glyph3-6" x="347.54855" y="91.775"/>
  <use xlink:href="#glyph3-7" x="351.73286" y="91.775"/>
  <use xlink:href="#glyph3-13" x="355.91717" y="91.775"/>
  <use xlink:href="#glyph3-10" x="360.10148" y="91.775"/>
  <use xlink:href="#glyph3-17" x="364.28579" y="91.775"/>
</g>
<g style="fill:rgb(0%,0%,0%);fill-opacity:1;">
  <use xlink:href="#glyph3-20" x="288.968" y="99.745"/>
  <use xlink:href="#glyph3-20" x="293.15231" y="99.745"/>
  <use xlink:href="#glyph3-20" x="297.33662" y="99.745"/>
</g>
<path style="fill:none;stroke-width:0.79701;stroke-linecap:butt;stroke-linejoin:miter;stroke:rgb(0%,0%,0%);stroke-opacity:1;stroke-miterlimit:10;" d="M 43.317094 39.285344 L 100.012406 39.285344 L 100.012406 97.22675 L 116.090531 97.22675 " transform="matrix(1,0,0,-1,94.804,110.508)"/>
<path style="fill-rule:nonzero;fill:rgb(0%,0%,0%);fill-opacity:1;stroke-width:0.79701;stroke-linecap:butt;stroke-linejoin:miter;stroke:rgb(0%,0%,0%);stroke-opacity:1;stroke-miterlimit:10;" d="M 4.535358 0.0009 C 3.976764 0.137619 1.531451 0.918869 0.00020125 1.770431 L 0.00020125 -1.772538 C 1.531451 -0.920975 3.976764 -0.139725 4.535358 0.0009 Z M 4.535358 0.0009 " transform="matrix(1,0,0,-1,210.89433,13.28215)"/>
<path style="fill:none;stroke-width:0.79701;stroke-linecap:butt;stroke-linejoin:miter;stroke:rgb(0%,0%,0%);stroke-opacity:1;stroke-miterlimit:10;" d="M 43.317094 27.949406 L 71.66475 27.949406 " transform="matrix(1,0,0,-1,94.804,110.508)"/>
<g style="fill:rgb(0%,0%,0%);fill-opacity:1;">
  <use xlink:href="#glyph0-13" x="170.186" y="82.947"/>
</g>
<path style="fill:none;stroke-width:0.79701;stroke-linecap:butt;stroke-linejoin:miter;stroke:rgb(0%,0%,0%);stroke-opacity:1;stroke-miterlimit:10;" d="M 43.317094 16.609562 L 71.66475 16.609562 " transform="matrix(1,0,0,-1,94.804,110.508)"/>
<g style="fill:rgb(0%,0%,0%);fill-opacity:1;">
  <use xlink:href="#glyph0-13" x="170.186" y="94.285"/>
</g>
<path style="fill:none;stroke-width:0.79701;stroke-linecap:butt;stroke-linejoin:miter;stroke:rgb(0%,0%,0%);stroke-opacity:1;stroke-miterlimit:10;" d="M 43.317094 5.269719 L 71.66475 5.269719 " transform="matrix(1,0,0,-1,94.804,110.508)"/>
<g style="fill:rgb(0%,0%,0%);fill-opacity:1;">
  <use xlink:href="#glyph0-13" x="170.186" y="105.623"/>
</g>
<path style="fill:none;stroke-width:0.79701;stroke-linecap:butt;stroke-linejoin:miter;stroke:rgb(0%,0%,0%);stroke-opacity:1;stroke-miterlimit:10;" d="M 43.317094 -17.007625 L 100.012406 -17.007625 L 100.012406 41.742375 L 172.785844 41.742375 " transform="matrix(1,0,0,-1,94.804,110.508)"/>
<path style="fill-rule:nonzero;fill:rgb(0%,0%,0%);fill-opacity:1;stroke-width:0.79701;stroke-linecap:butt;stroke-linejoin:miter;stroke:rgb(0%,0%,0%);stroke-opacity:1;stroke-miterlimit:10;" d="M 4.533124 0.001515 C 3.978436 0.138234 1.529218 0.919484 0.00187375 1.771046 L 0.00187375 -1.771923 C 1.529218 -0.92036 3.978436 -0.13911 4.533124 0.001515 Z M 4.533124 0.001515 " transform="matrix(1,0,0,-1,267.58797,68.76714)"/>
<path style="fill:none;stroke-width:0.79701;stroke-linecap:butt;stroke-linejoin:miter;stroke:rgb(0%,0%,0%);stroke-opacity:1;stroke-miterlimit:10;" d="M 43.317094 -39.284969 L 100.012406 -39.284969 L 100.012406 -14.952938 L 116.090531 -14.952938 " transform="matrix(1,0,0,-1,94.804,110.508)"/>
<path style="fill-rule:nonzero;fill:rgb(0%,0%,0%);fill-opacity:1;stroke-width:0.79701;stroke-linecap:butt;stroke-linejoin:miter;stroke:rgb(0%,0%,0%);stroke-opacity:1;stroke-miterlimit:10;" d="M 4.535358 -0.0001675 C 3.976764 0.136551 1.531451 0.921707 0.00020125 1.77327 L 0.00020125 -1.773605 C 1.531451 -0.922043 3.976764 -0.136886 4.535358 -0.0001675 Z M 4.535358 -0.0001675 " transform="matrix(1,0,0,-1,210.89433,125.46077)"/>
</g>
</svg>
